<?xml version="1.0" encoding="UTF-8"?>
<!-- Generator: https://ezgif.com/png-to-svg -->
<svg version="1.1" xmlns="http://www.w3.org/2000/svg" width="423" height="320">
<path d="M0 0 C2.97 1.16 4.69 3.14 6.92 5.4 C7.39 5.87 7.86 6.33 8.34 6.82 C9.32 7.81 10.3 8.8 11.28 9.8 C12.76 11.31 14.24 12.8 15.73 14.29 C19.63 18.24 23.47 22.17 27.08 26.39 C31.16 31.06 35.51 35.44 39.91 39.81 C40.78 40.68 41.65 41.54 42.54 42.44 C44.41 44.31 46.29 46.17 48.16 48.04 C51.13 51 54.1 53.96 57.06 56.92 C63.36 63.2 69.66 69.49 75.97 75.77 C82.77 82.55 89.58 89.34 96.38 96.13 C99.32 99.07 102.27 102 105.21 104.93 C107.48 107.2 109.75 109.46 112.02 111.73 C112.83 112.53 113.63 113.33 114.46 114.15 C118.63 118.32 122.64 122.57 126.48 127.05 C128.7 129.61 131.06 131.98 133.46 134.36 C133.94 134.84 134.42 135.32 134.91 135.81 C136.41 137.3 137.91 138.78 139.4 140.27 C140.43 141.29 141.46 142.32 142.49 143.34 C144.98 145.82 147.47 148.29 149.97 150.77 C148.63 153.75 147.15 155.84 144.84 158.14 C144.2 158.78 143.57 159.42 142.91 160.07 C142.23 160.75 141.54 161.43 140.83 162.13 C140.12 162.84 139.41 163.55 138.68 164.28 C137.17 165.79 135.67 167.29 134.16 168.79 C131.87 171.06 129.58 173.34 127.3 175.62 C125.83 177.08 124.37 178.55 122.9 180.01 C122.22 180.68 121.55 181.35 120.85 182.05 C120.2 182.69 119.55 183.34 118.87 184.01 C118.31 184.57 117.75 185.13 117.17 185.7 C115.25 187.51 113.28 189.23 111.29 190.95 C106.63 195 102.28 199.33 97.92 203.71 C97.06 204.58 96.19 205.45 95.3 206.34 C93.43 208.22 91.56 210.09 89.7 211.96 C86.74 214.93 83.78 217.9 80.82 220.87 C74.53 227.16 68.25 233.47 61.97 239.77 C55.18 246.58 48.4 253.38 41.61 260.18 C38.67 263.12 35.74 266.07 32.8 269.02 C30.54 271.29 28.27 273.56 26.01 275.82 C25.21 276.63 24.41 277.43 23.58 278.26 C19.42 282.43 15.17 286.44 10.69 290.27 C8.16 292.47 5.82 294.82 3.47 297.21 C2.61 298.07 1.75 298.94 0.87 299.83 C0.24 300.47 -0.39 301.11 -1.03 301.77 C-6.37 297.31 -11.34 292.61 -16.24 287.69 C-17.43 286.51 -17.43 286.51 -18.64 285.3 C-21.23 282.71 -23.82 280.12 -26.41 277.53 C-28.22 275.72 -30.03 273.91 -31.84 272.09 C-35.63 268.31 -39.42 264.51 -43.21 260.72 C-47.57 256.36 -51.94 251.99 -56.3 247.63 C-60.53 243.41 -64.74 239.19 -68.96 234.97 C-70.75 233.19 -72.53 231.4 -74.32 229.62 C-76.82 227.12 -79.32 224.61 -81.82 222.11 C-82.55 221.38 -83.28 220.65 -84.04 219.9 C-87.99 215.93 -91.74 211.86 -95.4 207.63 C-97.79 204.91 -100.31 202.36 -102.88 199.81 C-103.41 199.27 -103.95 198.74 -104.51 198.18 C-106.25 196.44 -108 194.7 -109.75 192.96 C-110.97 191.74 -112.19 190.51 -113.42 189.29 C-116.61 186.1 -119.81 182.91 -123.01 179.72 C-126.28 176.46 -129.55 173.19 -132.82 169.93 C-139.22 163.54 -145.63 157.15 -152.03 150.77 C-150.71 147.83 -149.27 145.76 -147 143.49 C-146.38 142.86 -145.75 142.24 -145.11 141.59 C-144.43 140.91 -143.75 140.24 -143.05 139.54 C-142.33 138.82 -141.61 138.1 -140.87 137.36 C-138.49 134.97 -136.1 132.6 -133.71 130.22 C-132.05 128.56 -130.39 126.9 -128.73 125.24 C-125.25 121.76 -121.77 118.28 -118.28 114.81 C-113.82 110.37 -109.37 105.92 -104.92 101.47 C-101.49 98.04 -98.06 94.62 -94.63 91.19 C-92.99 89.55 -91.35 87.92 -89.71 86.28 C-87.41 83.98 -85.1 81.68 -82.79 79.39 C-82.13 78.72 -81.46 78.05 -80.77 77.36 C-76.95 73.57 -73.03 69.99 -68.96 66.48 C-65.92 63.78 -63.07 60.9 -60.22 57.99 C-59.59 57.36 -58.96 56.72 -58.32 56.06 C-56.97 54.7 -55.62 53.33 -54.27 51.96 C-51.41 49.05 -48.53 46.15 -45.66 43.26 C-40.32 37.87 -34.98 32.48 -29.67 27.08 C-25.95 23.31 -22.23 19.55 -18.49 15.79 C-17.07 14.36 -15.66 12.93 -14.25 11.49 C-12.29 9.48 -10.31 7.5 -8.33 5.51 C-7.46 4.61 -7.46 4.61 -6.57 3.69 C-2.55 -0.29 -2.55 -0.29 0 0 Z " fill="#010202" transform="translate(213.03326797485352,12.230850219726563)"/>
<path d="M0 0 C2.75 1.19 4.01 2.77 5.93 5.07 C9.7 9.4 13.6 13.55 17.66 17.61 C18.25 18.21 18.85 18.81 19.47 19.43 C21.39 21.35 23.31 23.27 25.23 25.19 C26.59 26.55 27.95 27.91 29.3 29.27 C32.13 32.1 34.96 34.93 37.8 37.76 C41.41 41.36 45.02 44.98 48.63 48.59 C51.42 51.39 54.22 54.19 57.03 56.99 C58.36 58.32 59.69 59.65 61.02 60.98 C70 70.02 70 70.02 79.48 78.53 C82.38 81.02 85.06 83.75 87.76 86.46 C88.3 87 88.84 87.54 89.4 88.09 C92.84 91.54 96 95.11 99.07 98.9 C97.45 102.97 94.53 105.71 91.47 108.73 C90.63 109.56 90.63 109.56 89.78 110.41 C88.61 111.58 87.43 112.75 86.25 113.92 C84.47 115.69 82.69 117.46 80.92 119.24 C75.78 124.36 70.62 129.37 65.1 134.08 C60.38 138.3 56.01 142.9 51.57 147.4 C45.9 153.15 40.25 158.84 34.1 164.09 C29.73 167.98 25.68 172.23 21.57 176.4 C16.11 181.93 10.67 187.37 4.77 192.43 C2.6 194.3 0.58 196.29 -1.43 198.34 C-2.1 199.01 -2.77 199.69 -3.46 200.39 C-3.95 200.89 -4.43 201.39 -4.93 201.9 C-10.74 197.09 -16.1 191.91 -21.43 186.58 C-22.88 185.13 -24.35 183.69 -25.81 182.25 C-27.18 180.87 -27.18 180.87 -28.58 179.48 C-29.84 178.23 -29.84 178.23 -31.11 176.96 C-32.93 174.9 -32.93 174.9 -32.93 172.9 C-33.59 172.9 -34.25 172.9 -34.93 172.9 C-36.31 171.27 -37.65 169.61 -38.93 167.9 C-37.4 163.23 -34.82 159.88 -31.81 156.09 C-31.34 155.49 -30.87 154.89 -30.39 154.27 C-29.24 152.81 -28.09 151.35 -26.93 149.9 C-30.26 151.32 -32.17 153.01 -34.49 155.77 C-35.07 156.45 -35.65 157.13 -36.25 157.83 C-37.86 159.81 -39.41 161.84 -40.93 163.9 C-44.29 162.46 -46.52 160.65 -48.93 157.9 C-48.93 157.24 -48.93 156.58 -48.93 155.9 C-49.53 155.63 -50.12 155.37 -50.74 155.09 C-53 153.86 -54.31 152.67 -56.03 150.77 C-56.6 150.15 -57.17 149.53 -57.75 148.9 C-58.35 148.24 -58.94 147.58 -59.56 146.9 C-60.81 145.53 -62.07 144.17 -63.32 142.8 C-63.94 142.14 -64.55 141.47 -65.18 140.78 C-70.81 134.72 -76.71 128.99 -83 123.61 C-85.77 121.16 -88.32 118.52 -90.91 115.89 C-93.56 113.28 -96.34 110.85 -99.17 108.44 C-99.75 107.93 -100.33 107.42 -100.93 106.9 C-101.82 106.18 -101.82 106.18 -102.72 105.45 C-103.12 104.94 -103.52 104.42 -103.93 103.9 C-103.5 100.75 -102.51 99.11 -100.27 96.91 C-99.45 96.1 -99.45 96.1 -98.61 95.27 C-98.04 94.71 -97.46 94.16 -96.87 93.59 C-96.32 93.04 -95.77 92.5 -95.21 91.94 C-92.35 89.14 -89.43 86.45 -86.39 83.86 C-80.51 78.76 -75.08 73.19 -69.58 67.68 C-67.67 65.77 -65.76 63.86 -63.85 61.95 C-62.62 60.72 -61.39 59.49 -60.17 58.26 C-59.6 57.7 -59.03 57.14 -58.45 56.55 C-55.39 53.48 -52.61 50.32 -49.93 46.9 C-48.29 45.21 -46.62 43.54 -44.93 41.9 C-44.15 41.09 -43.36 40.29 -42.56 39.46 C-40.05 37.01 -37.47 34.76 -34.77 32.52 C-30.8 29.02 -27.18 25.14 -23.5 21.34 C-21.23 19 -18.95 16.68 -16.67 14.36 C-15.46 13.13 -14.26 11.89 -13.07 10.66 C-11.33 8.86 -9.59 7.09 -7.83 5.31 C-7.3 4.75 -6.77 4.2 -6.22 3.62 C-2.47 -0.13 -2.47 -0.13 0 0 Z " fill="#13E6EE" transform="translate(213.9310302734375,65.10231018066406)"/>
<path d="M0 0 C2.48 0.92 3.28 1.87 4.91 3.94 C8.27 7.94 11.84 11.63 15.56 15.3 C16.47 16.2 16.47 16.2 17.41 17.13 C18.71 18.41 20.01 19.69 21.31 20.97 C24.08 23.7 26.84 26.44 29.61 29.18 C34.74 34.26 39.87 39.34 45.02 44.41 C48.62 47.95 52.21 51.5 55.79 55.06 C57.15 56.41 58.52 57.76 59.89 59.1 C61.8 60.97 63.7 62.85 65.59 64.74 C66.16 65.3 66.73 65.85 67.32 66.42 C68.87 67.98 68.87 67.98 71.05 70.76 C70.97 73.52 70.4 74.36 68.63 76.43 C68.03 76.98 67.43 77.52 66.81 78.08 C66.14 78.69 65.47 79.31 64.78 79.94 C63.71 80.9 63.71 80.9 62.62 81.89 C61.15 83.23 59.68 84.58 58.21 85.92 C57.5 86.58 56.78 87.24 56.05 87.91 C52.74 90.98 49.6 94.18 46.46 97.42 C44.45 99.38 42.4 101.21 40.27 103.04 C35.99 106.75 32.02 110.72 28.05 114.76 C23.5 119.4 18.88 123.85 13.95 128.1 C11.09 130.61 8.37 133.26 5.68 135.95 C5.16 136.46 4.64 136.96 4.1 137.49 C1.52 140.06 -0.59 142.35 -1.95 145.76 C-4.48 145.37 -5.68 145.05 -7.44 143.13 C-7.89 142.49 -8.35 141.86 -8.82 141.2 C-11.29 138.11 -11.29 138.11 -15.2 137.2 C-18.08 137.52 -18.08 137.52 -19.95 139.76 C-20.61 140.42 -21.27 141.08 -21.95 141.76 C-22.28 142.75 -22.61 143.74 -22.95 144.76 C-23.61 144.76 -24.27 144.76 -24.95 144.76 C-25.28 146.41 -25.61 148.06 -25.95 149.76 C-27.27 149.1 -28.59 148.44 -29.95 147.76 C-29.42 143.86 -28.53 141.85 -25.82 139.01 C-23.33 136.3 -20.98 133.57 -18.76 130.64 C-13.75 124.12 -8.32 117.97 -2.95 111.76 C3.36 104.45 9.62 97.11 15.71 89.6 C18.45 86.28 21.24 83.02 24.05 79.76 C29.15 73.84 34.13 67.83 39.05 61.76 C40.74 59.7 42.43 57.64 44.12 55.57 C44.87 54.65 45.62 53.73 46.4 52.78 C46.95 52.11 47.49 51.45 48.05 50.76 C34.77 56.23 24.38 68.16 14.14 77.9 C11.18 80.71 8.19 83.46 5.15 86.19 C-0.78 91.52 -6.19 97.22 -11.5 103.16 C-13.06 104.89 -14.64 106.6 -16.23 108.3 C-16.78 108.89 -17.32 109.48 -17.89 110.08 C-18.95 111.22 -20 112.35 -21.06 113.49 C-23.24 115.83 -25.16 118.09 -26.95 120.76 C-30.41 120.19 -31.76 119.22 -33.95 116.51 C-37.01 112.85 -40.15 109.27 -43.38 105.76 C-43.88 105.22 -44.37 104.68 -44.88 104.13 C-50.04 98.57 -55.43 93.25 -60.87 87.97 C-61.53 87.32 -62.19 86.67 -62.87 86 C-63.46 85.42 -64.06 84.85 -64.67 84.25 C-65.95 82.76 -65.95 82.76 -65.95 80.76 C-66.52 80.53 -67.1 80.31 -67.7 80.07 C-70.6 78.38 -72.13 76.58 -73.95 73.76 C-73.58 70.52 -72.44 68.89 -70.16 66.63 C-69.57 66.05 -68.99 65.46 -68.39 64.86 C-67.75 64.24 -67.12 63.62 -66.46 62.98 C-65.48 62.01 -65.48 62.01 -64.48 61.02 C-62.4 58.95 -60.3 56.88 -58.2 54.82 C-56.8 53.44 -55.4 52.05 -54 50.67 C-50.85 47.55 -47.7 44.44 -44.54 41.34 C-43.07 39.88 -41.61 38.41 -40.16 36.94 C-37.95 34.76 -37.95 34.76 -35.57 32.95 C-33.4 31.14 -31.8 29.48 -29.99 27.34 C-25.6 22.27 -20.88 17.54 -16.13 12.81 C-14.62 11.31 -13.11 9.79 -11.6 8.28 C-10.64 7.32 -9.67 6.35 -8.71 5.39 C-7.41 4.09 -7.41 4.09 -6.08 2.77 C-2.77 -0.34 -2.77 -0.34 0 0 Z " fill="#010201" transform="translate(212.9464111328125,92.23907470703125)"/>
<path d="M0 0 C-1.32 3.64 -3.03 6.86 -5.01 10.18 C-6.18 12.22 -6.18 12.22 -7.25 15.5 C-9.27 19.54 -11.55 21.54 -15 24.36 C-16.76 25.8 -18.31 27.29 -19.88 28.94 C-22 31 -22 31 -24 31 C-24.27 31.64 -24.54 32.28 -24.81 32.94 C-26 35 -26 35 -29 36 C-29.33 36.99 -29.66 37.98 -30 39 C-31.1 40.13 -32.2 41.25 -33.34 42.34 C-36.32 45.32 -39.04 48.53 -41.82 51.7 C-43.77 53.76 -45.73 55.32 -48 57 C-49.25 59.08 -49.25 59.08 -50 61 C-50.99 61 -51.98 61 -53 61 C-53.33 62.32 -53.66 63.64 -54 65 C-54.66 65 -55.32 65 -56 65 C-56 67.97 -56 70.94 -56 74 C-54.51 74.5 -54.51 74.5 -53 75 C-53 75.66 -53 76.32 -53 77 C-52.15 77.2 -51.29 77.39 -50.41 77.6 C-46.03 79.4 -43.62 82.01 -40.44 85.44 C-36.81 89.29 -33.62 92.34 -29 95 C-21.98 101.35 -15.43 108.42 -9.75 116 C-9.17 116.66 -8.59 117.32 -8 118 C-7.01 118 -6.02 118 -5 118 C-3.04 115.95 -3.04 115.95 -1.06 113.25 C2.86 108.28 7.02 103.81 11.57 99.41 C14.32 96.74 16.89 94 19.39 91.09 C22.92 87.01 26.72 83.34 30.69 79.69 C31.39 79.04 32.09 78.39 32.81 77.72 C34.21 76.42 35.62 75.12 37.04 73.82 C38.77 72.21 40.5 70.6 42.21 68.97 C47.46 64.06 52.84 59.38 58.44 54.88 C59.31 54.16 59.31 54.16 60.19 53.44 C63.4 50.91 65.9 49.38 70 49 C68.57 52.21 66.82 54.49 64.44 57.06 C61.44 60.37 58.56 63.72 55.75 67.19 C52.24 71.52 48.64 75.77 45 80 C41.46 84.1 37.97 88.23 34.56 92.44 C31 96.83 27.33 101.11 23.62 105.38 C14.08 116.35 4.76 127.38 -4 139 C-4.59 139.74 -5.18 140.47 -5.79 141.23 C-7.24 142.95 -7.24 142.95 -6.81 145.19 C-6.14 147.19 -6.14 147.19 -4 148 C-3.67 146.35 -3.34 144.7 -3 143 C-2.34 143 -1.68 143 -1 143 C-0.92 142.24 -0.83 141.47 -0.75 140.69 C0 138 0 138 1.69 136.19 C4.93 134.52 6.39 134.22 10 135 C12.01 136.92 13.69 138.95 15.39 141.15 C16.96 143.27 16.96 143.27 20 144 C20.66 142.35 21.32 140.7 22 139 C22.33 139.99 22.66 140.98 23 142 C24.07 141.94 25.14 141.88 26.25 141.81 C30.09 142 31.39 142.28 34 145 C34 145.66 34 146.32 34 147 C34.99 147 35.98 147 37 147 C37 147.66 37 148.32 37 149 C39.76 147.92 41.01 146.99 42.88 144.62 C45.26 141.68 47.78 139.97 51 138 C51.66 138.33 52.32 138.66 53 139 C50 142.03 47 145.04 44 148.06 C43.16 148.91 42.32 149.76 41.46 150.63 C37.01 155.1 32.5 159.4 27.71 163.51 C25.55 165.39 23.51 167.39 21.5 169.44 C20.83 170.12 20.16 170.8 19.47 171.5 C18.98 171.99 18.5 172.49 18 173 C12.19 168.2 6.83 163.01 1.5 157.69 C0.05 156.23 -1.42 154.79 -2.88 153.35 C-4.25 151.98 -4.25 151.98 -5.65 150.58 C-6.91 149.33 -6.91 149.33 -8.18 148.06 C-10 146 -10 146 -10 144 C-10.66 144 -11.32 144 -12 144 C-13.38 142.37 -14.72 140.71 -16 139 C-14.47 134.33 -11.89 130.98 -8.88 127.19 C-8.41 126.59 -7.94 125.99 -7.46 125.38 C-6.31 123.91 -5.16 122.46 -4 121 C-7.33 122.42 -9.24 124.12 -11.56 126.88 C-12.14 127.55 -12.72 128.23 -13.32 128.93 C-14.93 130.92 -16.48 132.94 -18 135 C-21.36 133.56 -23.59 131.75 -26 129 C-26 128.34 -26 127.68 -26 127 C-26.6 126.73 -27.19 126.47 -27.81 126.2 C-30.07 124.96 -31.38 123.77 -33.1 121.88 C-33.67 121.26 -34.24 120.64 -34.82 120 C-35.42 119.34 -36.01 118.68 -36.62 118 C-37.88 116.63 -39.13 115.27 -40.39 113.91 C-41 113.24 -41.62 112.57 -42.25 111.88 C-47.88 105.82 -53.78 100.09 -60.07 94.71 C-62.83 92.26 -65.39 89.62 -67.97 86.99 C-70.66 84.35 -73.53 81.94 -76.43 79.54 C-78 78 -78 78 -79 75 C-77.95 73.34 -77.95 73.34 -76.24 71.49 C-75.26 70.43 -75.26 70.43 -74.26 69.35 C-69.96 64.88 -65.6 60.48 -61.21 56.11 C-60.18 55.08 -59.15 54.05 -58.12 53.02 C-55.42 50.33 -52.72 47.64 -50.02 44.95 C-47.28 42.22 -44.54 39.49 -41.8 36.76 C-36.98 31.95 -32.16 27.14 -27.34 22.33 C-22.05 17.06 -22.05 17.06 -16.81 11.74 C-15.68 10.6 -14.56 9.45 -13.44 8.31 C-12.87 7.73 -12.31 7.15 -11.73 6.55 C-11.18 6 -10.63 5.44 -10.06 4.86 C-9.57 4.36 -9.07 3.86 -8.57 3.34 C-5.75 0.93 -3.72 0 0 0 Z " fill="#2EB637" transform="translate(191,94)"/>
<path d="M0 0 C2.48 1.35 3.93 3.1 5.75 5.27 C9.46 9.54 13.3 13.6 17.31 17.58 C17.85 18.11 18.39 18.65 18.94 19.19 C20.21 20.45 21.48 21.7 22.75 22.95 C22.11 23.69 21.46 24.43 20.8 25.19 C18.81 27.88 18.22 29.02 18 32.27 C17.92 33.48 17.84 34.7 17.75 35.95 C16.43 36.28 15.11 36.61 13.75 36.95 C18.21 45.37 24.96 51.43 31.75 57.95 C27.87 57.95 26.82 56.37 24.17 53.74 C23.58 53.13 22.98 52.52 22.37 51.9 C21.45 50.98 21.45 50.98 20.51 50.03 C19.21 48.72 17.91 47.41 16.62 46.1 C14.64 44.09 12.64 42.09 10.65 40.08 C9.39 38.81 8.13 37.55 6.87 36.28 C5.97 35.37 5.97 35.37 5.06 34.45 C0.87 30.19 0.87 30.19 -0.25 27.95 C-5.44 28.29 -8.07 31.24 -11.5 34.78 C-12.38 35.66 -12.38 35.66 -13.27 36.56 C-15.12 38.43 -16.97 40.32 -18.81 42.2 C-20.05 43.46 -21.3 44.71 -22.54 45.97 C-23.74 47.18 -24.93 48.39 -26.13 49.6 C-26.68 50.16 -27.24 50.72 -27.81 51.3 C-30.82 54.39 -33.59 57.55 -36.25 60.95 C-39.23 64.12 -42.42 67 -45.67 69.89 C-51.21 74.87 -56.58 80 -61.88 85.24 C-62.93 86.27 -63.99 87.3 -65.05 88.32 C-66.6 89.82 -68.13 91.33 -69.67 92.85 C-70.57 93.73 -71.48 94.62 -72.41 95.53 C-74.49 97.74 -74.49 97.74 -74.14 100.12 C-71.84 104.83 -67.95 108.34 -64.25 111.95 C-62.64 113.56 -61.04 115.16 -59.44 116.77 C-58.65 117.56 -57.85 118.35 -57.04 119.16 C-56.45 119.75 -55.86 120.35 -55.25 120.95 C-58.25 120.95 -58.25 120.95 -60.95 118.44 C-62.52 116.8 -64.06 115.14 -65.6 113.48 C-68.91 110.03 -71.86 107.99 -76.25 105.95 C-78.11 104.56 -78.11 104.56 -79.25 102.95 C-79.54 100.69 -79.54 100.69 -79.44 98.27 C-79.41 97.46 -79.38 96.65 -79.35 95.82 C-79.32 95.2 -79.28 94.59 -79.25 93.95 C-78.26 93.46 -78.26 93.46 -77.25 92.95 C-76.75 91.47 -76.75 91.47 -76.25 89.95 C-74.76 89.46 -74.76 89.46 -73.25 88.95 C-72.24 87.3 -71.24 85.63 -70.25 83.95 C-68.2 82 -68.2 82 -65.94 80.14 C-62.25 76.98 -59.5 73.78 -56.71 69.83 C-54.72 67.28 -52.4 65.35 -49.89 63.31 C-46.69 60.67 -43.89 57.62 -41.01 54.64 C-40.2 53.82 -39.39 52.99 -38.56 52.14 C-37.79 51.35 -37.03 50.56 -36.24 49.75 C-34.25 47.95 -34.25 47.95 -32.25 47.95 C-32.17 47.07 -32.08 46.18 -32 45.27 C-31.13 41.44 -29.74 39.94 -27.25 36.95 C-25.8 34.34 -24.53 31.66 -23.25 28.95 C-29.69 31.77 -33.85 35.09 -38.62 40.2 C-39.83 41.49 -41.05 42.76 -42.27 44.03 C-43.06 44.87 -43.06 44.87 -43.86 45.73 C-45.25 46.95 -45.25 46.95 -47.25 46.95 C-47.59 47.79 -47.59 47.79 -47.94 48.64 C-49.61 51.6 -51.7 53.64 -54.11 56.04 C-54.6 56.54 -55.09 57.03 -55.6 57.54 C-57.23 59.16 -58.86 60.78 -60.49 62.4 C-61.63 63.53 -62.76 64.66 -63.89 65.79 C-66.88 68.76 -69.86 71.73 -72.85 74.7 C-75.89 77.71 -78.92 80.74 -81.95 83.76 C-87.29 89.07 -92.62 94.38 -97.96 99.68 C-99.73 101.44 -101.49 103.19 -103.25 104.95 C-103.92 103.16 -103.92 103.16 -104.25 100.95 C-103.2 99.33 -103.2 99.33 -101.56 97.75 C-100.97 97.16 -100.37 96.57 -99.75 95.97 C-99.11 95.37 -98.47 94.76 -97.81 94.14 C-97.21 93.55 -96.6 92.96 -95.98 92.35 C-92.96 89.43 -89.87 86.61 -86.67 83.89 C-80.8 78.8 -75.38 73.24 -69.9 67.74 C-67.99 65.82 -66.08 63.91 -64.16 62.01 C-62.93 60.78 -61.71 59.55 -60.48 58.32 C-59.92 57.76 -59.35 57.19 -58.76 56.61 C-55.71 53.53 -52.92 50.38 -50.25 46.95 C-48.6 45.27 -46.93 43.6 -45.25 41.95 C-44.46 41.15 -43.68 40.35 -42.87 39.52 C-40.37 37.07 -37.78 34.81 -35.09 32.58 C-31.12 29.08 -27.5 25.2 -23.82 21.4 C-21.55 19.06 -19.27 16.74 -16.98 14.41 C-15.78 13.18 -14.58 11.95 -13.38 10.71 C-11.65 8.92 -9.9 7.14 -8.15 5.37 C-7.62 4.81 -7.09 4.25 -6.54 3.68 C-2.81 -0.06 -2.81 -0.06 0 0 Z " fill="#A6EDD5" transform="translate(214.247802734375,65.045166015625)"/>
<path d="M0 0 C-1.32 3.64 -3.03 6.86 -5.01 10.18 C-6.18 12.22 -6.18 12.22 -7.25 15.5 C-9.27 19.54 -11.55 21.54 -15 24.36 C-16.76 25.8 -18.31 27.29 -19.88 28.94 C-22 31 -22 31 -24 31 C-24.27 31.64 -24.54 32.28 -24.81 32.94 C-26 35 -26 35 -29 36 C-29.33 36.99 -29.66 37.98 -30 39 C-31.1 40.13 -32.2 41.25 -33.34 42.34 C-36.32 45.32 -39.04 48.53 -41.82 51.7 C-43.77 53.76 -45.73 55.32 -48 57 C-49.25 59.08 -49.25 59.08 -50 61 C-50.99 61 -51.98 61 -53 61 C-53.33 62.32 -53.66 63.64 -54 65 C-54.66 65 -55.32 65 -56 65 C-56 67.97 -56 70.94 -56 74 C-54.51 74.5 -54.51 74.5 -53 75 C-53 75.66 -53 76.32 -53 77 C-52.05 77.21 -51.1 77.41 -50.12 77.62 C-49.09 78.08 -48.06 78.53 -47 79 C-45.88 82 -45.88 82 -45 85 C-43 86.42 -43 86.42 -41 87 C-41 87.66 -41 88.32 -41 89 C-43.97 88.5 -43.97 88.5 -47 88 C-47 88.99 -47 89.98 -47 91 C-47.66 91 -48.32 91 -49 91 C-49.33 91.66 -49.66 92.32 -50 93 C-50.66 93 -51.32 93 -52 93 C-52.33 94.32 -52.66 95.64 -53 97 C-49.86 96.52 -47.48 95.76 -44.56 94.44 C-40.9 92.96 -38.87 92.33 -35 93 C-32.56 95.12 -32.56 95.12 -30 98 C-28.1 99.45 -26.2 100.88 -24.26 102.28 C-23 104 -23 104 -23.24 106.67 C-23.49 107.77 -23.74 108.87 -24 110 C-24.19 111.36 -24.37 112.72 -24.54 114.09 C-24.67 115.14 -24.67 115.14 -24.8 116.21 C-24.89 116.93 -24.97 117.64 -25.06 118.38 C-25.15 119.11 -25.24 119.85 -25.34 120.61 C-25.56 122.4 -25.78 124.2 -26 126 C-29 126 -29 126 -30.56 124.69 C-31.11 124.08 -31.66 123.48 -32.22 122.85 C-32.84 122.18 -33.45 121.51 -34.09 120.82 C-35.07 119.73 -35.07 119.73 -36.06 118.62 C-37.42 117.15 -38.77 115.67 -40.13 114.2 C-40.79 113.48 -41.46 112.76 -42.14 112.01 C-47.8 105.89 -53.74 100.13 -60.07 94.71 C-62.83 92.26 -65.39 89.62 -67.97 86.99 C-70.66 84.35 -73.53 81.94 -76.43 79.54 C-78 78 -78 78 -79 75 C-77.95 73.34 -77.95 73.34 -76.24 71.49 C-75.26 70.43 -75.26 70.43 -74.26 69.35 C-69.96 64.88 -65.6 60.48 -61.21 56.11 C-60.18 55.08 -59.15 54.05 -58.12 53.02 C-55.42 50.33 -52.72 47.64 -50.02 44.95 C-47.28 42.22 -44.54 39.49 -41.8 36.76 C-36.98 31.95 -32.16 27.14 -27.34 22.33 C-22.05 17.06 -22.05 17.06 -16.81 11.74 C-15.68 10.6 -14.56 9.45 -13.44 8.31 C-12.87 7.73 -12.31 7.15 -11.73 6.55 C-11.18 6 -10.63 5.44 -10.06 4.86 C-9.57 4.36 -9.07 3.86 -8.57 3.34 C-5.75 0.93 -3.72 0 0 0 Z " fill="#3FCC50" transform="translate(191,94)"/>
<path d="M0 0 C4.06 0.53 5.91 2.55 8.73 5.41 C9.42 6.09 9.42 6.09 10.11 6.79 C11.62 8.31 13.11 9.83 14.61 11.35 C15.66 12.41 16.71 13.47 17.76 14.53 C20.54 17.31 23.3 20.11 26.06 22.91 C30.46 27.37 34.88 31.82 39.29 36.27 C40.82 37.82 42.35 39.36 43.88 40.91 C48.54 45.63 53.24 50.24 58.3 54.54 C61.24 57.07 63.96 59.81 66.69 62.56 C67.5 63.37 67.5 63.37 68.33 64.19 C71.77 67.64 74.93 71.22 78 75 C76.37 79.08 73.45 81.85 70.4 84.9 C69.84 85.46 69.29 86.02 68.72 86.6 C67.54 87.78 66.36 88.96 65.18 90.14 C63.39 91.92 61.62 93.72 59.85 95.51 C54.27 101.13 49.05 106.25 42 110 C42 107 42 107 44.01 104.91 C44.89 104.16 45.78 103.4 46.69 102.62 C50.27 99.53 53.67 96.36 57 93 C58.34 91.72 59.68 90.43 61.02 89.15 C62.47 87.75 63.92 86.34 65.38 84.94 C66.12 84.23 66.87 83.52 67.64 82.79 C68.7 81.77 68.7 81.77 69.77 80.71 C70.42 80.1 71.06 79.48 71.72 78.84 C73.22 77.09 73.22 77.09 72.86 74.96 C71.4 71.63 68.79 69.28 66.25 66.75 C65.72 66.2 65.2 65.64 64.66 65.07 C62.26 62.66 60.65 61.11 57.24 60.55 C54.51 61.1 53.12 62.23 51 64 C50.01 64.33 49.02 64.66 48 65 C45.72 67.82 45.72 67.82 46 71 C41.13 66.94 36.53 62.69 32.04 58.21 C31.41 57.59 30.78 56.96 30.14 56.31 C28.82 55 27.51 53.69 26.19 52.38 C24.18 50.37 22.16 48.37 20.14 46.37 C18.86 45.09 17.58 43.81 16.29 42.52 C15.39 41.63 15.39 41.63 14.47 40.72 C13.91 40.16 13.35 39.6 12.78 39.02 C12.29 38.53 11.8 38.04 11.29 37.54 C9.84 35.81 8.97 34.04 8 32 C6.63 30.42 6.63 30.42 5.03 28.98 C4.46 28.43 3.89 27.88 3.3 27.32 C2.1 26.19 0.9 25.07 -0.3 23.95 C-3.86 20.53 -5.86 17.96 -7 13 C-6.01 12.34 -5.02 11.68 -4 11 C-3.65 8.67 -3.32 6.33 -3 4 C-1.44 1.56 -1.44 1.56 0 0 Z " fill="#14DC29" transform="translate(235,89)"/>
<path d="M0 0 C0.66 0 1.32 0 2 0 C1.41 3.39 0.23 5.21 -2.06 7.75 C-2.61 8.36 -3.16 8.98 -3.72 9.61 C-4.14 10.07 -4.57 10.53 -5 11 C-4.01 11 -3.02 11 -2 11 C-5.55 14.58 -9.11 18.15 -12.67 21.72 C-13.88 22.94 -15.08 24.15 -16.29 25.36 C-35.3 44.51 -35.3 44.51 -45 47 C-46.49 47.5 -46.49 47.5 -48 48 C-50.5 45.75 -50.5 45.75 -53 43 C-53 38.72 -52.94 38.44 -50.25 35.56 C-48.42 33.55 -46.71 31.61 -45.06 29.44 C-41.9 25.69 -38.3 22.14 -33.87 19.95 C-31.85 19.1 -31.85 19.1 -30.56 17.06 C-29 15 -29 15 -26.56 13.62 C-23.77 12.11 -23.77 12.11 -22.12 9 C-19.39 5.14 -17.34 4.64 -13 3 C-12.67 2.34 -12.34 1.68 -12 1 C-10.91 1.19 -9.81 1.37 -8.69 1.56 C-5.06 2.26 -5.06 2.26 -2 1 C-1.34 1.33 -0.68 1.66 0 2 C0 1.34 0 0.68 0 0 Z " fill="#10F3F9" transform="translate(282,187)"/>
<path d="M0 0 C-1.43 3.21 -3.18 5.49 -5.56 8.06 C-8.56 11.37 -11.44 14.72 -14.25 18.19 C-17.76 22.52 -21.36 26.77 -25 31 C-28.54 35.1 -32.03 39.23 -35.44 43.44 C-39 47.83 -42.67 52.11 -46.38 56.38 C-55.16 66.48 -63.83 76.56 -71.81 87.32 C-73.74 89.69 -75.47 91.33 -78 93 C-73.68 83.94 -67.02 76.5 -60.27 69.18 C-59.72 68.57 -59.17 67.95 -58.6 67.32 C-58.1 66.78 -57.6 66.23 -57.08 65.67 C-55.64 63.77 -55.64 63.77 -56 60 C-57.28 60.19 -58.56 60.37 -59.88 60.56 C-63.75 61.12 -63.75 61.12 -66 60 C-64.46 56.29 -62.19 54.02 -59.31 51.25 C-56.27 48.32 -53.4 45.33 -50.65 42.13 C-47.11 38.04 -43.29 34.35 -39.31 30.69 C-38.61 30.04 -37.91 29.39 -37.19 28.72 C-35.79 27.42 -34.38 26.12 -32.96 24.82 C-31.23 23.21 -29.5 21.6 -27.79 19.97 C-6.44 0 -6.44 0 0 0 Z " fill="#49EDE6" transform="translate(261,143)"/>
<path d="M0 0 C0.99 0 1.98 0 3 0 C3 0.66 3 1.32 3 2 C3.95 2.21 4.9 2.41 5.88 2.62 C6.91 3.08 7.94 3.53 9 4 C10.12 7 10.12 7 11 10 C13 11.42 13 11.42 15 12 C15 12.66 15 13.32 15 14 C12.03 13.5 12.03 13.5 9 13 C9 13.99 9 14.98 9 16 C8.34 16 7.68 16 7 16 C6.67 16.66 6.34 17.32 6 18 C5.34 18 4.68 18 4 18 C3.67 19.32 3.34 20.64 3 22 C6.14 21.52 8.52 20.76 11.44 19.44 C15.1 17.96 17.13 17.33 21 18 C23.44 20.12 23.44 20.12 26 23 C27.9 24.45 29.8 25.88 31.74 27.28 C33 29 33 29 32.76 31.67 C32.38 33.32 32.38 33.32 32 35 C31.81 36.36 31.63 37.72 31.46 39.09 C31.38 39.79 31.29 40.49 31.2 41.21 C31.11 41.93 31.03 42.64 30.94 43.38 C30.85 44.11 30.76 44.85 30.66 45.61 C30.44 47.4 30.22 49.2 30 51 C27 51 27 51 25.44 49.69 C24.89 49.08 24.34 48.48 23.78 47.85 C23.16 47.18 22.55 46.51 21.91 45.82 C21.26 45.09 20.61 44.37 19.94 43.62 C18.58 42.15 17.23 40.67 15.87 39.2 C15.21 38.48 14.54 37.76 13.86 37.01 C8.11 30.8 2.1 24.9 -4.41 19.47 C-6 18 -6 18 -8 15 C-8 13.68 -8 12.36 -8 11 C-6.82 10.6 -6.82 10.6 -5.62 10.19 C-2.72 9.15 -2.72 9.15 -1 6 C-1.33 5.01 -1.66 4.02 -2 3 C-1.34 3 -0.68 3 0 3 C0 2.01 0 1.02 0 0 Z " fill="#42E31C" transform="translate(135,169)"/>
<path d="M0 0 C6.72 5.57 12.77 11.71 18.88 17.92 C23.17 22.25 27.52 26.4 32.14 30.37 C35.11 32.97 37.9 35.76 40.69 38.56 C41.23 39.1 41.77 39.64 42.33 40.19 C45.77 43.64 48.93 47.22 52 51 C50.37 55.08 47.45 57.85 44.4 60.9 C43.84 61.46 43.29 62.02 42.72 62.6 C41.54 63.78 40.36 64.96 39.18 66.14 C37.39 67.92 35.62 69.72 33.85 71.51 C28.27 77.13 23.05 82.25 16 86 C16 83 16 83 18.01 80.91 C18.89 80.16 19.78 79.4 20.69 78.62 C24.27 75.53 27.67 72.36 31 69 C32.34 67.72 33.68 66.43 35.02 65.15 C36.47 63.75 37.92 62.34 39.38 60.94 C40.12 60.23 40.87 59.52 41.64 58.79 C42.35 58.11 43.05 57.42 43.77 56.71 C44.42 56.1 45.06 55.48 45.72 54.84 C47.22 53.09 47.22 53.09 46.86 50.96 C45.4 47.63 42.79 45.28 40.25 42.75 C39.72 42.2 39.2 41.64 38.66 41.07 C36.26 38.66 34.65 37.11 31.24 36.55 C28.51 37.1 27.12 38.23 25 40 C24.01 40.33 23.02 40.66 22 41 C19.72 43.82 19.72 43.82 20 47 C15.1 42.89 10.48 38.61 5.97 34.07 C5.34 33.44 4.71 32.8 4.05 32.15 C2.05 30.14 0.06 28.13 -1.94 26.12 C-3.3 24.75 -4.67 23.39 -6.03 22.02 C-9.36 18.68 -12.68 15.34 -16 12 C-13 12 -13 12 -11.55 13.16 C-11.05 13.69 -10.55 14.23 -10.04 14.77 C-9.48 15.35 -8.93 15.93 -8.36 16.52 C-7.21 17.75 -6.06 18.98 -4.91 20.2 C-0.65 24.66 -0.65 24.66 5 27 C7.13 26.18 7.13 26.18 9 25 C9.99 25 10.98 25 12 25 C12 24.34 12 23.68 12 23 C13.65 22.67 15.3 22.34 17 22 C14.97 16.44 11.72 13.93 6.96 10.52 C5 9 5 9 4 7 C3.01 6.67 2.02 6.34 1 6 C0.67 4.02 0.34 2.04 0 0 Z " fill="#1AA350" transform="translate(261,113)"/>
<path d="M0 0 C5.42 1.47 8.54 5.2 12.31 9.12 C13.28 10.11 13.28 10.11 14.27 11.12 C15.85 12.74 17.43 14.37 19 16 C18.36 16.74 17.71 17.47 17.05 18.23 C15.05 20.93 14.47 22.07 14.25 25.31 C14.17 26.53 14.09 27.75 14 29 C12.68 29.33 11.36 29.66 10 30 C14.45 38.41 21.21 44.47 28 51 C24.12 51 23.07 49.42 20.42 46.78 C19.82 46.18 19.23 45.57 18.62 44.95 C18 44.33 17.39 43.71 16.75 43.08 C15.45 41.77 14.16 40.46 12.87 39.15 C10.88 37.13 8.89 35.13 6.89 33.13 C5.63 31.86 4.38 30.59 3.12 29.32 C2.22 28.42 2.22 28.42 1.31 27.5 C-2.88 23.23 -2.88 23.23 -4 21 C-9.04 21.44 -11.38 23.71 -15 27 C-14.12 21.12 -14.12 21.12 -13 20 C-12.89 18.08 -12.82 16.17 -12.75 14.25 C-12.43 10.11 -12.22 8.33 -9.88 4.81 C-6.51 2.69 -3.94 2.23 0 2 C0 1.34 0 0.68 0 0 Z " fill="#8CB1C5" transform="translate(218,72)"/>
<path d="M0 0 C0.66 0 1.32 0 2 0 C0.49 3.84 -1.77 5.52 -5 8 C-8.9 11.54 -11.26 14.93 -13.62 19.62 C-18.03 28.34 -18.03 28.34 -23 30 C-24.61 31.95 -25.98 34 -27.4 36.09 C-29.14 38.17 -30.56 38.9 -33 40 C-33.64 40.66 -34.28 41.32 -34.94 42 C-37 44 -37 44 -39.62 45 C-42.16 45.8 -42.16 45.8 -43.31 48.12 C-43.65 49.05 -43.65 49.05 -44 50 C-44.66 50 -45.32 50 -46 50 C-46.33 50.99 -46.66 51.98 -47 53 C-47.66 53 -48.32 53 -49 53 C-49.23 53.72 -49.45 54.44 -49.69 55.19 C-51.25 58.53 -53.3 60.52 -56 63 C-55.69 63.6 -55.38 64.2 -55.06 64.81 C-54 67 -54 67 -53 70 C-50.36 69.67 -47.72 69.34 -45 69 C-46.67 70.67 -48.33 72.33 -50 74 C-50.89 74.93 -51.77 75.86 -52.69 76.81 C-55 79 -55 79 -57 79 C-57 78.34 -57 77.68 -57 77 C-57.99 77 -58.98 77 -60 77 C-60.87 76.04 -60.87 76.04 -61.75 75.06 C-64.71 72.35 -67.08 72.3 -71 72 C-70.48 68 -69.56 66.07 -66.68 63.26 C-65.66 62.25 -65.66 62.25 -64.62 61.21 C-63.9 60.53 -63.18 59.84 -62.44 59.12 C-61.4 58.1 -61.4 58.1 -60.34 57.06 C-56.97 53.76 -53.54 50.57 -49.97 47.49 C-45.77 43.86 -41.89 39.96 -38 36 C-33.45 31.36 -28.83 26.92 -23.91 22.68 C-20.97 20.09 -18.24 17.3 -15.5 14.5 C-10.84 9.78 -6.08 5.28 -1 1 C-0.67 0.67 -0.34 0.34 0 0 Z " fill="#1BD6D5" transform="translate(285,164)"/>
<path d="M0 0 C3.11 1.56 6.04 3.19 9 5 C9.66 3.35 10.32 1.7 11 0 C11.33 0.99 11.66 1.98 12 3 C13.61 2.91 13.61 2.91 15.25 2.81 C19.09 3 20.39 3.28 23 6 C23 6.66 23 7.32 23 8 C23.99 8 24.98 8 26 8 C26.5 9.49 26.5 9.49 27 11 C24.23 13.8 21.46 16.59 18.69 19.38 C17.9 20.17 17.12 20.96 16.31 21.78 C15.17 22.92 15.17 22.92 14.01 24.09 C13.32 24.79 12.62 25.49 11.9 26.21 C10 28 10 28 7 30 C3.05 29.77 1.01 27.44 -1.69 24.75 C-2.48 23.98 -3.26 23.21 -4.07 22.42 C-6.12 19.85 -6.66 18.23 -7 15 C-6.01 14.67 -5.02 14.34 -4 14 C-4 13.34 -4 12.68 -4 12 C-3.34 12 -2.68 12 -2 12 C-1.34 8.04 -0.68 4.08 0 0 Z " fill="#1BCE4E" transform="translate(202,233)"/>
<path d="M0 0 C-1.32 3.64 -3.03 6.86 -5.01 10.18 C-6.18 12.22 -6.18 12.22 -7.25 15.5 C-9.27 19.54 -11.55 21.54 -15 24.36 C-16.76 25.8 -18.31 27.29 -19.88 28.94 C-22 31 -22 31 -24 31 C-24.27 31.64 -24.54 32.28 -24.81 32.94 C-26 35 -26 35 -29 36 C-29.33 36.99 -29.66 37.98 -30 39 C-31.1 40.13 -32.2 41.25 -33.34 42.34 C-36.32 45.32 -39.04 48.53 -41.82 51.7 C-43.77 53.76 -45.73 55.32 -48 57 C-49.25 59.08 -49.25 59.08 -50 61 C-50.99 61 -51.98 61 -53 61 C-53.33 62.32 -53.66 63.64 -54 65 C-54.66 65 -55.32 65 -56 65 C-56 67.97 -56 70.94 -56 74 C-55.34 74.33 -54.68 74.66 -54 75 C-54.66 75 -55.32 75 -56 75 C-56 75.99 -56 76.98 -56 78 C-56.66 78 -57.32 78 -58 78 C-58 78.66 -58 79.32 -58 80 C-56.51 80.5 -56.51 80.5 -55 81 C-59.62 85.88 -59.62 85.88 -63 87 C-63 87.99 -63 88.98 -63 90 C-67.12 88.34 -70.07 85.38 -73.25 82.38 C-73.8 81.86 -74.36 81.34 -74.93 80.81 C-76.29 79.55 -77.65 78.27 -79 77 C-77.71 73.23 -76.27 70.92 -73.38 68.19 C-72.74 67.58 -72.11 66.98 -71.46 66.36 C-70.98 65.91 -70.5 65.46 -70 65 C-70 68 -70 68 -72.44 70.5 C-73.28 71.32 -74.13 72.15 -75 73 C-75.33 73.99 -75.66 74.98 -76 76 C-69.54 73.29 -65.1 70.54 -60.72 65.05 C-58.36 62.23 -55.64 59.96 -52.84 57.58 C-50.43 55.51 -48.22 53.28 -46 51 C-44.81 49.81 -43.63 48.62 -42.44 47.44 C-41.85 46.84 -41.25 46.25 -40.64 45.64 C-39.32 44.32 -37.98 43.03 -36.62 41.75 C-34.77 39.99 -34.77 39.99 -34 37 C-32.11 35.39 -32.11 35.39 -29.75 33.69 C-25.83 30.74 -23.01 27.85 -20 24 C-18.33 22.33 -16.67 20.67 -15 19 C-13.57 17.49 -12.15 15.97 -10.75 14.44 C-10.06 13.69 -9.38 12.95 -8.67 12.18 C-7.03 10.03 -6.41 8.64 -6 6 C-7.32 5.67 -8.64 5.34 -10 5 C-6.99 1.69 -4.54 0 0 0 Z " fill="#95DF61" transform="translate(191,94)"/>
<path d="M0 0 C4.27 0.49 6.27 2.93 9.2 5.91 C9.69 6.4 10.17 6.88 10.67 7.39 C12.2 8.94 13.73 10.5 15.25 12.06 C16.29 13.12 17.33 14.17 18.38 15.23 C20.92 17.81 23.46 20.4 26 23 C22.52 24.16 20.54 23.71 17 23 C16.34 24.32 15.68 25.64 15 27 C13.68 27 12.36 27 11 27 C11 27.66 11 28.32 11 29 C10.34 29 9.68 29 9 29 C9.33 30.32 9.66 31.64 10 33 C-5.6 20 -5.6 20 -7 13 C-6.01 12.34 -5.02 11.68 -4 11 C-3.65 8.67 -3.32 6.33 -3 4 C-1.44 1.56 -1.44 1.56 0 0 Z " fill="#42EB7B" transform="translate(235,89)"/>
<path d="M0 0 C1.88 2 1.88 2 3 4 C2.34 4 1.68 4 1 4 C1.04 5.05 1.08 6.1 1.12 7.19 C1.01 10.74 0.53 12.85 -1 16 C-1.66 16 -2.32 16 -3 16 C-3 16.66 -3 17.32 -3 18 C-3.66 18.66 -4.32 19.32 -5 20 C-3.67 23.92 -2.03 26.43 0.88 29.38 C1.89 30.44 1.89 30.44 2.93 31.52 C4.85 33.22 4.85 33.22 7.04 32.9 C14.48 29.48 20.46 21.64 26.17 15.87 C26.88 15.15 26.88 15.15 27.61 14.41 C28.95 13.05 30.29 11.68 31.62 10.31 C34.56 7.46 37.63 5.31 41 3 C41.99 3.5 41.99 3.5 43 4 C40 7.03 37 10.04 34 13.06 C33.16 13.91 32.32 14.76 31.46 15.63 C27.01 20.1 22.5 24.4 17.71 28.51 C15.55 30.39 13.51 32.39 11.5 34.44 C10.49 35.46 10.49 35.46 9.47 36.5 C8.98 36.99 8.5 37.49 8 38 C2.19 33.2 -3.17 28.01 -8.5 22.69 C-9.95 21.23 -11.42 19.79 -12.88 18.35 C-14.25 16.98 -14.25 16.98 -15.65 15.58 C-16.49 14.75 -17.32 13.92 -18.18 13.06 C-20 11 -20 11 -20 9 C-20.66 8.67 -21.32 8.34 -22 8 C-20.68 7.34 -19.36 6.68 -18 6 C-17.71 6.97 -17.42 7.94 -17.12 8.94 C-16.36 12.11 -16.36 12.11 -14 13 C-13.67 11.35 -13.34 9.7 -13 8 C-12.34 8 -11.68 8 -11 8 C-10.92 7.24 -10.84 6.47 -10.75 5.69 C-10 3 -10 3 -8.31 1.19 C-5.28 -0.37 -3.36 -0.5 0 0 Z " fill="#14973C" transform="translate(201,229)"/>
<path d="M0 0 C2.53 1.45 3.43 3.45 4.74 6 C3.64 6.25 3.64 6.25 2.51 6.51 C-4.23 8.19 -8.68 9.7 -13.07 15.31 C-14.89 17.54 -16.51 19.12 -18.69 20.95 C-22.2 23.99 -25.52 27.19 -28.78 30.49 C-29.5 31.22 -29.5 31.22 -30.23 31.96 C-32.21 33.96 -34.18 35.97 -36.15 37.98 C-37.61 39.47 -39.07 40.95 -40.53 42.43 C-41.39 43.31 -42.25 44.19 -43.14 45.09 C-45.26 47 -45.26 47 -47.26 47 C-47.6 47.83 -47.6 47.83 -47.96 48.68 C-49.62 51.64 -51.71 53.69 -54.12 56.09 C-54.61 56.58 -55.11 57.07 -55.61 57.58 C-57.24 59.21 -58.87 60.82 -60.51 62.44 C-61.64 63.57 -62.77 64.7 -63.91 65.83 C-66.89 68.81 -69.87 71.77 -72.86 74.74 C-75.9 77.76 -78.93 80.78 -81.96 83.8 C-87.3 89.11 -92.63 94.42 -97.98 99.73 C-99.74 101.48 -101.5 103.24 -103.26 105 C-103.93 103.2 -103.93 103.2 -104.26 101 C-103.21 99.37 -103.21 99.37 -101.58 97.79 C-100.98 97.2 -100.38 96.62 -99.76 96.01 C-99.12 95.41 -98.48 94.81 -97.82 94.19 C-97.22 93.59 -96.61 93 -95.99 92.4 C-92.97 89.47 -89.88 86.66 -86.68 83.93 C-80.81 78.84 -75.39 73.28 -69.91 67.78 C-68 65.87 -66.09 63.96 -64.17 62.05 C-62.95 60.82 -61.72 59.59 -60.49 58.37 C-59.93 57.8 -59.36 57.24 -58.78 56.65 C-55.72 53.58 -52.93 50.42 -50.26 47 C-48.61 45.31 -46.95 43.64 -45.26 42 C-44.48 41.19 -43.69 40.39 -42.88 39.56 C-40.38 37.12 -37.79 34.86 -35.1 32.62 C-31.13 29.12 -27.51 25.24 -23.83 21.44 C-21.56 19.11 -19.28 16.78 -16.99 14.46 C-15.79 13.23 -14.59 11.99 -13.4 10.76 C-11.66 8.96 -9.91 7.19 -8.16 5.41 C-7.63 4.85 -7.1 4.3 -6.55 3.72 C-2.83 -0 -2.83 -0 0 0 Z " fill="#D9EDEE" transform="translate(214.259521484375,65.00146484375)"/>
<path d="M0 0 C3.21 0.31 4.02 1.02 6.21 3.32 C7.13 4.26 7.13 4.26 8.08 5.23 C8.7 5.9 9.33 6.57 9.97 7.25 C10.62 7.92 11.26 8.59 11.93 9.28 C13.52 10.93 15.09 12.58 16.66 14.25 C16.33 15.24 16 16.23 15.66 17.25 C15.33 16.92 15 16.59 14.66 16.25 C5.84 15.25 5.84 15.25 -2.09 18.19 C-2.83 19.2 -3.58 20.21 -4.34 21.25 C-6.04 22.89 -7.77 24.49 -9.53 26.07 C-10.82 27.25 -10.82 27.25 -12.13 28.46 C-14.34 30.25 -14.34 30.25 -16.34 30.25 C-16.67 31.24 -17 32.23 -17.34 33.25 C-18.33 32.92 -19.32 32.59 -20.34 32.25 C-17.49 26.99 -13.68 23.32 -9.09 19.57 C-6.32 17.55 -6.32 17.55 -5.34 15.25 C-6.33 15.58 -7.32 15.91 -8.34 16.25 C-10.84 13.32 -11.81 11.07 -12.34 7.25 C-11.68 7.25 -11.02 7.25 -10.34 7.25 C-10.01 6.26 -9.68 5.27 -9.34 4.25 C-7.37 3.19 -5.37 2.19 -3.34 1.25 C-2.34 0.25 -2.34 0.25 0 0 Z " fill="#1CD29F" transform="translate(292.340576171875,148.74609375)"/>
<path d="M0 0 C4.86 1.87 8.01 5.95 11.49 9.66 C14.42 12.7 16.77 14.93 21 16 C23.13 15.18 23.13 15.18 25 14 C25.99 14 26.98 14 28 14 C28 13.34 28 12.68 28 12 C30.31 12 32.62 12 35 12 C35.5 12.99 35.5 12.99 36 14 C34.33 14.19 34.33 14.19 32.62 14.38 C28.97 14.65 28.97 14.65 27 17 C26.01 17 25.02 17 24 17 C24.33 18.32 24.66 19.64 25 21 C28.73 19.88 28.73 19.88 31 17 C34.38 16.81 34.38 16.81 38 17 C38.66 17.99 39.32 18.98 40 20 C41.32 19.67 42.64 19.34 44 19 C46.48 21.97 46.48 21.97 49 25 C48.3 25.27 47.6 25.54 46.88 25.81 C40.55 28.25 40.55 28.25 36 33 C36 33.99 36 34.98 36 36 C31.11 31.89 26.48 27.63 21.97 23.11 C21.34 22.47 20.71 21.84 20.05 21.19 C18.73 19.86 17.4 18.54 16.08 17.21 C14.05 15.17 12.01 13.14 9.97 11.1 C8.68 9.81 7.39 8.52 6.1 7.23 C5.49 6.62 4.87 6.01 4.24 5.38 C0 1.11 0 1.11 0 0 Z " fill="#21AD65" transform="translate(245,124)"/>
<path d="M0 0 C2.98 1.42 4.98 2.78 7.25 5.19 C9.58 7.65 12.01 9.89 14.58 12.09 C19.8 16.62 24.63 21.53 29.5 26.44 C30.88 27.82 30.88 27.82 32.28 29.23 C34.52 31.49 36.76 33.74 39 36 C35.32 36 34.91 35.31 32.34 32.82 C31.63 32.14 30.93 31.46 30.2 30.77 C29.45 30.04 28.71 29.31 27.94 28.56 C26.4 27.09 24.86 25.61 23.32 24.14 C22.21 23.06 22.21 23.06 21.07 21.97 C17.79 18.84 14.41 15.84 11.01 12.84 C9.11 11.1 7.37 9.27 5.62 7.38 C4.76 6.59 3.89 5.81 3 5 C-0.51 5.39 -2.03 6.83 -4.41 9.37 C-6.36 11.37 -8.42 13.18 -10.51 15.02 C-16.12 20.05 -21.42 25.33 -26.71 30.69 C-27.7 31.68 -28.69 32.68 -29.68 33.67 C-33.82 37.84 -37.96 42.01 -42.1 46.19 C-44.65 48.77 -47.2 51.34 -49.76 53.91 C-50.72 54.88 -51.69 55.86 -52.65 56.84 C-53.99 58.19 -55.34 59.55 -56.69 60.9 C-57.45 61.67 -58.21 62.44 -59 63.23 C-61 65 -61 65 -64 66 C-62.36 61.78 -59.24 58.97 -56.08 55.85 C-55.48 55.25 -54.87 54.64 -54.25 54.02 C-52.25 52.02 -50.25 50.04 -48.24 48.05 C-46.85 46.66 -45.47 45.28 -44.08 43.89 C-40.43 40.25 -36.78 36.62 -33.12 32.98 C-29.39 29.27 -25.67 25.56 -21.94 21.84 C-14.63 14.56 -7.32 7.28 0 0 Z " fill="#CEE2E2" transform="translate(213,34)"/>
<path d="M0 0 C0.66 0.33 1.32 0.66 2 1 C-1.02 5.95 -4.52 10.27 -9 14 C-9.66 14 -10.32 14 -11 14 C-11.27 14.58 -11.54 15.17 -11.81 15.77 C-13.01 18.03 -14.34 19.81 -16 21.75 C-16.52 22.36 -17.03 22.98 -17.56 23.61 C-19 25 -19 25 -21 25 C-21.33 25.99 -21.66 26.98 -22 28 C-22.66 28 -23.32 28 -24 28 C-24.09 28.84 -24.09 28.84 -24.19 29.69 C-26.07 35.06 -31.87 38.67 -36.13 42.25 C-38.06 44.06 -39.6 45.75 -41 48 C-39.67 54.97 -34.89 59.22 -30 64 C-28.39 65.6 -26.79 67.21 -25.19 68.81 C-24 70 -24 70 -22.79 71.21 C-22.2 71.8 -21.61 72.39 -21 73 C-24 73 -24 73 -26.71 70.48 C-28.27 68.84 -29.81 67.19 -31.35 65.53 C-34.66 62.07 -37.61 60.04 -42 58 C-43.86 56.61 -43.86 56.61 -45 55 C-45.29 52.74 -45.29 52.74 -45.19 50.31 C-45.16 49.5 -45.13 48.7 -45.11 47.86 C-45.07 47.25 -45.04 46.63 -45 46 C-44.01 45.5 -44.01 45.5 -43 45 C-42.67 44.01 -42.34 43.02 -42 42 C-40.51 41.5 -40.51 41.5 -39 41 C-37.99 39.34 -36.99 37.67 -36 36 C-33.95 34.04 -33.95 34.04 -31.69 32.19 C-28 29.03 -25.25 25.83 -22.46 21.88 C-20.47 19.32 -18.15 17.39 -15.64 15.35 C-13.26 13.39 -11.15 11.21 -9 9 C-7.4 7.39 -5.79 5.79 -4.19 4.19 C-3.4 3.4 -2.61 2.61 -1.79 1.79 C-1.2 1.2 -0.61 0.61 0 0 Z " fill="#A9E494" transform="translate(180,113)"/>
<path d="M0 0 C0.99 0.5 0.99 0.5 2 1 C-1.16 4.19 -4.33 7.38 -7.5 10.56 C-8.83 11.91 -8.83 11.91 -10.19 13.28 C-14.68 17.79 -19.22 22.13 -24.06 26.28 C-27.71 29.51 -31.08 33.02 -34.5 36.5 C-39.27 41.35 -44.09 46.03 -49.25 50.47 C-51.38 52.34 -53.35 54.33 -55.31 56.38 C-58.39 59.5 -61.55 62.29 -65 65 C-73.31 71.63 -80.58 79.41 -88 87 C-88.66 86.67 -89.32 86.34 -90 86 C-84.74 80.71 -79.47 75.43 -74.2 70.15 C-72.41 68.35 -70.63 66.56 -68.84 64.76 C-66.26 62.17 -63.68 59.58 -61.09 57 C-60.3 56.2 -59.51 55.41 -58.7 54.59 C-54.49 50.38 -50.21 46.33 -45.69 42.46 C-43.43 40.5 -41.34 38.4 -39.25 36.25 C-36.65 33.57 -34.12 31.07 -31 29 C-30.34 29 -29.68 29 -29 29 C-29 28.34 -29 27.68 -29 27 C-27.37 25.28 -25.71 23.64 -24 22 C-22.94 20.93 -21.89 19.85 -20.84 18.77 C-19.73 17.64 -18.61 16.51 -17.5 15.38 C-16.94 14.8 -16.39 14.23 -15.82 13.64 C-12.73 10.52 -9.85 8.17 -6 6 C-4.2 4.44 -4.2 4.44 -2.69 2.81 C-1.36 1.42 -1.36 1.42 0 0 Z " fill="#1A282E" transform="translate(321,184)"/>
<path d="M0 0 C0.99 0 1.98 0 3 0 C3 0.66 3 1.32 3 2 C3.95 2.21 4.9 2.41 5.88 2.62 C6.91 3.08 7.94 3.53 9 4 C10.12 7 10.12 7 11 10 C13 11.42 13 11.42 15 12 C15 12.66 15 13.32 15 14 C12.03 13.5 12.03 13.5 9 13 C9 13.99 9 14.98 9 16 C8.34 16 7.68 16 7 16 C6.67 16.66 6.34 17.32 6 18 C5.34 18 4.68 18 4 18 C3.67 19.32 3.34 20.64 3 22 C0.88 22.44 0.88 22.44 -2 22 C-4.41 19.95 -6.39 17.72 -8 15 C-8 13.68 -8 12.36 -8 11 C-6.82 10.6 -6.82 10.6 -5.62 10.19 C-2.72 9.15 -2.72 9.15 -1 6 C-1.33 5.01 -1.66 4.02 -2 3 C-1.34 3 -0.68 3 0 3 C0 2.01 0 1.02 0 0 Z " fill="#72D94F" transform="translate(135,169)"/>
<path d="M0 0 C0.38 3.3 0.27 4.64 -1.72 7.36 C-2.49 8.15 -3.27 8.94 -4.06 9.75 C-8.95 14.91 -13.6 20.25 -17.45 26.26 C-17.96 26.83 -18.47 27.41 -19 28 C-20.32 28 -21.64 28 -23 28 C-23 27.34 -23 26.68 -23 26 C-23.66 25.67 -24.32 25.34 -25 25 C-22.87 20.11 -19.97 16.33 -16.64 12.18 C-14.71 9.61 -13.38 6.9 -12 4 C-10.81 2.19 -10.81 2.19 -9 1 C-6.03 0.39 -3.04 0 0 0 Z " fill="#22D625" transform="translate(206,202)"/>
<path d="M0 0 C-1.68 3.7 -3.92 6.27 -6.66 9.22 C-8.12 10.9 -8.12 10.9 -8.44 12.95 C-9.22 15.82 -10.82 17.23 -12.88 19.38 C-16.68 23.48 -20.2 27.7 -23.62 32.12 C-27.59 37.24 -31.64 42.21 -36 47 C-36 38.63 -24.69 29.07 -19.22 23.13 C-18.67 22.52 -18.13 21.91 -17.56 21.29 C-17.07 20.75 -16.58 20.21 -16.07 19.66 C-14.64 17.77 -14.64 17.77 -15 14 C-17.64 14.33 -20.28 14.66 -23 15 C-23 14.34 -23 13.68 -23 13 C-22.34 13 -21.68 13 -21 13 C-20.76 12.44 -20.53 11.88 -20.29 11.3 C-15.72 3.14 -9.22 -1.34 0 0 Z " fill="#25EA47" transform="translate(220,189)"/>
<path d="M0 0 C1.32 0.66 2.64 1.32 4 2 C2 5 2 5 -1 5.94 C-4.11 6.7 -4.11 6.7 -5.38 9.12 C-5.58 9.74 -5.79 10.36 -6 11 C-6.66 11 -7.32 11 -8 11 C-8 12.65 -8 14.3 -8 16 C-7.38 16.25 -6.76 16.5 -6.12 16.75 C-3.6 18.24 -3.28 19.44 -2 22 C-1.42 22.26 -0.84 22.53 -0.24 22.8 C2.79 24.42 4.54 26.61 6.81 29.19 C13.57 36.76 20.78 43.87 28 51 C24.12 51 23.07 49.42 20.42 46.78 C19.82 46.18 19.23 45.57 18.62 44.95 C18 44.33 17.39 43.71 16.75 43.08 C15.45 41.77 14.16 40.46 12.87 39.15 C10.88 37.13 8.89 35.13 6.89 33.13 C5.63 31.86 4.38 30.59 3.12 29.32 C2.22 28.42 2.22 28.42 1.31 27.5 C-2.88 23.23 -2.88 23.23 -4 21 C-9.04 21.44 -11.38 23.71 -15 27 C-14.12 21.12 -14.12 21.12 -13 20 C-12.89 18.08 -12.82 16.17 -12.75 14.25 C-12.43 10.11 -12.22 8.33 -9.88 4.81 C-6.51 2.69 -3.94 2.23 0 2 C0 1.34 0 0.68 0 0 Z " fill="#9EC8CC" transform="translate(218,72)"/>
<path d="M0 0 C0.66 0.33 1.32 0.66 2 1 C-1.55 4.58 -5.11 8.15 -8.67 11.72 C-9.88 12.94 -11.08 14.15 -12.29 15.36 C-31.28 34.49 -31.28 34.49 -38 36 C-34.5 31.83 -31.02 27.69 -27 24 C-26.34 24 -25.68 24 -25 24 C-24.67 22.35 -24.34 20.7 -24 19 C-23.34 19 -22.68 19 -22 19 C-21.91 17.61 -21.91 17.61 -21.81 16.19 C-21 13 -21 13 -18.62 11.06 C-16 10 -16 10 -13 11 C-13.33 10.01 -13.66 9.02 -14 8 C-12.68 7.34 -11.36 6.68 -10 6 C-10 5.34 -10 4.68 -10 4 C-9.04 3.69 -9.04 3.69 -8.07 3.38 C-7.24 3.11 -6.41 2.84 -5.56 2.56 C-4.74 2.3 -3.92 2.03 -3.07 1.75 C-1.04 1.18 -1.04 1.18 0 0 Z " fill="#28F2F5" transform="translate(278,197)"/>
<path d="M0 0 C0.66 0 1.32 0 2 0 C0.49 3.84 -1.77 5.52 -5 8 C-7.57 10.52 -10.09 13.09 -12.61 15.68 C-13.46 16.55 -14.31 17.42 -15.19 18.31 C-16.05 19.2 -16.91 20.08 -17.79 20.99 C-20 23 -20 23 -22 23 C-22.24 23.58 -22.48 24.16 -22.73 24.75 C-24.25 27.44 -25.97 28.94 -28.31 30.94 C-33.34 35.33 -38.04 39.98 -42.71 44.75 C-46.8 48.9 -46.8 48.9 -49 50 C-49.33 50.99 -49.66 51.98 -50 53 C-51.38 53.91 -52.77 54.82 -54.18 55.69 C-57.16 57.84 -59.57 60.53 -62.07 63.2 C-63.97 64.97 -65.63 65.98 -68 67 C-66.38 62.92 -63.46 60.2 -60.38 57.19 C-59.88 56.69 -59.38 56.2 -58.87 55.69 C-56.04 52.88 -53.12 50.22 -50.1 47.61 C-45.86 43.94 -41.93 40 -38 36 C-33.45 31.36 -28.83 26.92 -23.91 22.68 C-20.97 20.09 -18.24 17.3 -15.5 14.5 C-10.84 9.78 -6.08 5.28 -1 1 C-0.67 0.67 -0.34 0.34 0 0 Z " fill="#C5E1E6" transform="translate(285,164)"/>
<path d="M0 0 C-1.43 3.21 -3.18 5.49 -5.56 8.06 C-9.49 12.38 -13.18 16.86 -16.82 21.42 C-19.09 24.1 -21.49 26.56 -24 29 C-24.12 28.36 -24.25 27.72 -24.38 27.06 C-24.58 26.38 -24.79 25.7 -25 25 C-25.66 24.67 -26.32 24.34 -27 24 C-26.34 23.67 -25.68 23.34 -25 23 C-25.66 22.67 -26.32 22.34 -27 22 C-26.45 21.47 -25.89 20.94 -25.32 20.39 C-24.6 19.68 -23.87 18.98 -23.12 18.25 C-22.41 17.55 -21.69 16.86 -20.95 16.14 C-18.95 14.18 -18.95 14.18 -18.18 12.06 C-16.27 8.72 -13.18 6.92 -10.06 4.75 C-9.43 4.29 -8.8 3.83 -8.14 3.36 C-3.39 0 -3.39 0 0 0 Z " fill="#4FC3BA" transform="translate(261,143)"/>
<path d="M0 0 C0 0.99 0 1.98 0 3 C-0.97 3.41 -1.94 3.82 -2.94 4.25 C-6.12 5.65 -6.12 5.65 -6.88 8.19 C-6.92 8.79 -6.96 9.38 -7 10 C-9.31 10.33 -11.62 10.66 -14 11 C-15.98 8.36 -17.96 5.72 -20 3 C-18 -1 -18 -1 -15 -2 C-9.19 -3.26 -5.21 -2.89 0 0 Z " fill="#13E22F" transform="translate(218,250)"/>
<path d="M0 0 C0.99 0.33 1.98 0.66 3 1 C0.49 5.75 -1.75 9.04 -5.88 12.56 C-10.28 16.42 -14.49 20.44 -18.61 24.6 C-19.1 25.1 -19.59 25.6 -20.1 26.11 C-22.12 28.14 -24.13 30.18 -26.13 32.22 C-27.55 33.68 -28.98 35.13 -30.41 36.57 C-31.67 37.85 -31.67 37.85 -32.94 39.16 C-35 41 -35 41 -37 41 C-34.01 34.38 -28.31 28.87 -23 24 C-22.01 23.67 -21.02 23.34 -20 23 C-19.9 22.42 -19.79 21.84 -19.69 21.25 C-18.8 18.34 -17.09 17.36 -14.74 15.55 C-12.68 13.72 -11.15 11.71 -9.5 9.5 C-6.63 5.7 -3.95 2.69 0 0 Z " fill="#C8E7D1" transform="translate(175,122)"/>
<path d="M0 0 C1.88 2 1.88 2 3 4 C1.68 4.33 0.36 4.66 -1 5 C-1 5.99 -1 6.98 -1 8 C-2.62 9.71 -4.3 11.37 -6 13 C-7.36 14.65 -8.7 16.31 -10 18 C-13.29 17.42 -14.94 16.45 -17.25 14.06 C-17.77 13.54 -18.29 13.01 -18.83 12.47 C-20 11 -20 11 -20 9 C-20.66 8.67 -21.32 8.34 -22 8 C-20.68 7.34 -19.36 6.68 -18 6 C-17.71 6.97 -17.42 7.94 -17.12 8.94 C-16.36 12.11 -16.36 12.11 -14 13 C-13.67 11.35 -13.34 9.7 -13 8 C-12.34 8 -11.68 8 -11 8 C-10.92 7.24 -10.84 6.47 -10.75 5.69 C-10 3 -10 3 -8.31 1.19 C-5.28 -0.37 -3.36 -0.5 0 0 Z " fill="#134130" transform="translate(201,229)"/>
<path d="M0 0 C3.49 1.48 5.64 3.46 8.25 6.19 C10.93 8.98 13.67 11.6 16.61 14.11 C22.53 19.24 27.94 24.89 33.44 30.46 C38.56 35.65 43.71 40.74 49.26 45.48 C51.79 47.69 54.14 50.04 56.5 52.44 C57.36 53.3 58.21 54.17 59.09 55.06 C59.72 55.7 60.35 56.34 61 57 C59.11 61.28 56.64 63.15 53 66 C54.31 63.08 55.76 61.24 58 59 C58 58.34 58 57.68 58 57 C56.52 55.5 56.52 55.5 54.56 53.94 C48.95 49.17 43.87 43.92 38.71 38.67 C35.3 35.23 31.9 31.86 28.22 28.71 C22.93 24.17 18.06 19.21 13.14 14.27 C11.48 12.6 9.81 10.94 8.14 9.28 C7.08 8.22 6.03 7.16 4.97 6.1 C4.47 5.6 3.97 5.11 3.45 4.59 C0 1.12 0 1.12 0 0 Z " fill="#9BD9D9" transform="translate(286,103)"/>
<path d="M0 0 C0.66 0.33 1.32 0.66 2 1 C-1.12 4.17 -4.24 7.34 -7.38 10.5 C-8.26 11.41 -9.15 12.31 -10.07 13.25 C-10.92 14.1 -11.77 14.96 -12.65 15.84 C-13.43 16.64 -14.22 17.44 -15.03 18.26 C-17 20 -17 20 -19 20 C-19.27 20.64 -19.54 21.28 -19.81 21.94 C-21 24 -21 24 -24 25 C-24.21 26.05 -24.41 27.1 -24.62 28.19 C-25.51 31.85 -27.02 32.98 -30.19 34.94 C-31.39 35.65 -31.39 35.65 -32.62 36.38 C-35.85 38.58 -38.02 41.29 -40.39 44.36 C-42.23 46.24 -43.44 46.62 -46 47 C-44.46 43.29 -42.19 41.02 -39.31 38.25 C-36.27 35.32 -33.4 32.34 -30.65 29.13 C-27.09 25.02 -23.25 21.31 -19.25 17.62 C-18.56 16.98 -17.87 16.34 -17.15 15.68 C-11.47 10.41 -5.76 5.18 0 0 Z " fill="#B2E5E6" transform="translate(241,156)"/>
<path d="M0 0 C1.98 1.65 3.96 3.3 6 5 C4.37 9.08 1.45 11.85 -1.6 14.9 C-2.43 15.74 -2.43 15.74 -3.28 16.6 C-4.46 17.78 -5.64 18.96 -6.82 20.14 C-8.61 21.92 -10.38 23.72 -12.15 25.51 C-17.73 31.13 -22.95 36.25 -30 40 C-30 37 -30 37 -27.99 34.91 C-27.11 34.16 -26.22 33.4 -25.31 32.62 C-21.73 29.53 -18.34 26.35 -15 23 C-13.66 21.75 -12.32 20.5 -10.98 19.26 C-9.53 17.88 -8.08 16.5 -6.62 15.12 C-5.88 14.44 -5.13 13.76 -4.36 13.06 C-0.49 9.6 -0.49 9.6 1.25 4.93 C1 2.78 1 2.78 0 0 Z " fill="#448A84" transform="translate(307,159)"/>
<path d="M0 0 C4.57 3.74 8.82 7.71 13 11.88 C13.49 12.36 13.97 12.84 14.47 13.33 C17.11 15.98 19.62 18.7 22.05 21.55 C26.57 26.73 31.43 31.56 36.31 36.41 C37.29 37.38 38.26 38.36 39.24 39.33 C41.78 41.87 44.33 44.41 46.88 46.95 C49.49 49.55 52.09 52.15 54.7 54.75 C59.8 59.84 64.9 64.92 70 70 C67 70 67 70 64.67 68.04 C63.76 67.12 62.85 66.21 61.91 65.26 C61.4 64.76 60.89 64.25 60.37 63.73 C58.69 62.06 57.03 60.37 55.36 58.69 C54.19 57.52 53.03 56.35 51.86 55.18 C49.41 52.72 46.96 50.26 44.51 47.8 C41.4 44.65 38.28 41.52 35.15 38.39 C32.15 35.39 29.16 32.38 26.17 29.38 C25.61 28.81 25.04 28.24 24.46 27.66 C18.92 22.09 13.41 16.53 8.32 10.53 C6.14 8 3.71 5.74 1.29 3.45 C0 2 0 2 0 0 Z " fill="#35795A" transform="translate(139,221)"/>
<path d="M0 0 C3.33 2.79 6.58 5.57 9.62 8.69 C11.95 10.96 14.2 12.38 17 14 C19.97 16.34 20.5 18.29 21 22 C19.85 21.07 18.7 20.13 17.56 19.19 C16.92 18.67 16.29 18.14 15.63 17.61 C14 16 14 16 13 13 C7.01 12.56 3.42 13.47 -1.95 16.11 C-4.39 17.17 -6.36 17.34 -9 17 C-8.34 16.67 -7.68 16.34 -7 16 C-7 14.35 -7 12.7 -7 11 C-6.01 11.33 -5.02 11.66 -4 12 C-3.67 11.01 -3.34 10.02 -3 9 C-2.34 9.33 -1.68 9.66 -1 10 C-1 9.01 -1 8.02 -1 7 C1.97 7.5 1.97 7.5 5 8 C3.76 6.58 3.76 6.58 2.5 5.12 C0 2.25 0 2.25 0 0 Z " fill="#45B126" transform="translate(145,175)"/>
<path d="M0 0 C0.66 0.33 1.32 0.66 2 1 C0.57 2.34 0.57 2.34 -0.88 3.7 C-2.11 4.88 -3.34 6.07 -4.56 7.25 C-5.19 7.84 -5.82 8.42 -6.47 9.03 C-7.06 9.6 -7.65 10.17 -8.25 10.77 C-8.8 11.29 -9.35 11.81 -9.92 12.35 C-11.21 13.96 -11.21 13.96 -10.84 16.05 C-9.71 18.66 -7.82 19.99 -5.62 21.71 C-3.22 23.62 -1.14 25.81 1 28 C1.76 28.72 2.53 29.44 3.31 30.19 C5 32 5 32 5 34 C5.58 34.23 6.16 34.45 6.75 34.69 C9.6 36.35 11 38.39 13 41 C14.65 42.68 16.32 44.34 18 46 C19.18 47.18 20.37 48.37 21.55 49.55 C22.17 50.17 22.78 50.78 23.42 51.42 C26.28 54.28 29.14 57.14 32 60 C29 60 29 60 26.97 58.33 C26.19 57.55 25.42 56.77 24.62 55.96 C23.3 54.64 23.3 54.64 21.95 53.29 C20.99 52.32 20.04 51.35 19.08 50.38 C18.1 49.39 17.12 48.4 16.14 47.42 C13.55 44.82 10.97 42.21 8.4 39.6 C5.77 36.94 3.13 34.29 0.49 31.64 C-4.68 26.44 -9.84 21.22 -15 16 C-14.05 14.89 -13.11 13.78 -12.16 12.67 C-11.63 12.05 -11.11 11.43 -10.56 10.79 C-8.51 8.44 -6.34 6.25 -4.12 4.06 C-3.34 3.29 -2.56 2.52 -1.76 1.72 C-1.18 1.15 -0.6 0.59 0 0 Z " fill="#9A9EA2" transform="translate(91,144)"/>
<path d="M0 0 C-1.32 3.64 -3.03 6.86 -5.01 10.18 C-6.18 12.22 -6.18 12.22 -7.25 15.5 C-9.27 19.54 -11.55 21.54 -15 24.36 C-16.76 25.8 -18.31 27.29 -19.88 28.94 C-22 31 -22 31 -24 31 C-24.24 31.61 -24.49 32.23 -24.74 32.86 C-26.25 35.43 -27.44 36.04 -30.12 37.25 C-30.85 37.59 -31.57 37.92 -32.32 38.27 C-32.87 38.51 -33.43 38.75 -34 39 C-34 38.34 -34 37.68 -34 37 C-32.21 35.48 -32.21 35.48 -29.81 33.75 C-25.87 30.78 -23.03 27.87 -20 24 C-18.33 22.33 -16.67 20.67 -15 19 C-13.57 17.49 -12.15 15.97 -10.75 14.44 C-10.06 13.69 -9.38 12.95 -8.67 12.18 C-7.03 10.03 -6.41 8.64 -6 6 C-7.32 5.67 -8.64 5.34 -10 5 C-6.99 1.69 -4.54 0 0 0 Z " fill="#61DC74" transform="translate(191,94)"/>
<path d="M0 0 C3.17 0.58 4.78 1.42 7.02 3.72 C7.54 4.26 8.07 4.8 8.62 5.35 C9.16 5.92 9.69 6.48 10.25 7.06 C10.8 7.63 11.36 8.2 11.93 8.78 C13.29 10.18 14.65 11.59 16 13 C14 14 14 14 11.62 13.38 C8.51 11.74 7.08 9.8 5 7 C4.34 6.67 3.68 6.34 3 6 C3 5.01 3 4.02 3 3 C2.34 3 1.68 3 1 3 C0.73 7.65 0.73 7.65 2 12 C1.01 12.5 1.01 12.5 0 13 C-0.63 16.38 -1 19.56 -1 23 C-4.48 19.98 -5.79 17.43 -7 13 C-6.01 12.34 -5.02 11.68 -4 11 C-3.65 8.67 -3.32 6.33 -3 4 C-1.44 1.56 -1.44 1.56 0 0 Z " fill="#4BE486" transform="translate(235,89)"/>
<path d="M0 0 C0.33 0.99 0.66 1.98 1 3 C2.61 2.91 2.61 2.91 4.25 2.81 C8.09 3 9.39 3.28 12 6 C12 6.66 12 7.32 12 8 C12.99 8 13.98 8 15 8 C15.33 8.99 15.66 9.98 16 11 C14.94 12.56 14.94 12.56 13 14 C9.31 13.69 9.31 13.69 6 13 C6 12.34 6 11.68 6 11 C4.87 10.69 3.73 10.38 2.56 10.06 C-1 9 -1 9 -2 8 C-1.28 1.28 -1.28 1.28 0 0 Z " fill="#1CD795" transform="translate(213,233)"/>
<path d="M0 0 C0 3 0 3 -2.44 5.5 C-3.28 6.32 -4.13 7.15 -5 8 C-5.33 8.99 -5.66 9.98 -6 11 C-1.38 11 3.24 11 8 11 C8 11.66 8 12.32 8 13 C7.01 13.5 7.01 13.5 6 14 C6.33 15.65 6.66 17.3 7 19 C6.34 19 5.68 19 5 19 C5.66 20.98 6.32 22.96 7 25 C2.88 23.34 -0.07 20.38 -3.25 17.38 C-3.8 16.86 -4.36 16.34 -4.93 15.81 C-6.29 14.55 -7.65 13.27 -9 12 C-7.71 8.23 -6.27 5.92 -3.38 3.19 C-2.74 2.58 -2.11 1.98 -1.46 1.36 C-0.98 0.91 -0.5 0.46 0 0 Z " fill="#9AE361" transform="translate(121,159)"/>
<path d="M0 0 C0.93 0.08 1.86 0.16 2.81 0.25 C2.94 1.18 2.94 1.18 3.06 2.12 C3.63 4.43 3.63 4.43 5.88 5.5 C6.51 5.75 7.15 6 7.81 6.25 C7.81 6.91 7.81 7.57 7.81 8.25 C4.84 7.75 4.84 7.75 1.81 7.25 C1.81 8.24 1.81 9.23 1.81 10.25 C1.15 10.25 0.49 10.25 -0.19 10.25 C-0.52 10.91 -0.85 11.57 -1.19 12.25 C-1.85 12.25 -2.51 12.25 -3.19 12.25 C-3.52 13.57 -3.85 14.89 -4.19 16.25 C-5.18 15.92 -6.17 15.59 -7.19 15.25 C-8.73 10.02 -7.42 6.58 -4.94 1.88 C-3.19 0.25 -3.19 0.25 0 0 Z " fill="#53EE1C" transform="translate(142.1875,174.75)"/>
<path d="M0 0 C0.66 0.33 1.32 0.66 2 1 C-1 4.03 -4 7.04 -7 10.06 C-7.84 10.91 -8.68 11.76 -9.54 12.63 C-14 17.11 -18.52 21.43 -23.32 25.54 C-25.3 27.26 -27.17 29.06 -29 30.94 C-29.87 31.82 -29.87 31.82 -30.75 32.71 C-31.37 33.35 -31.37 33.35 -32 34 C-32.66 33.67 -33.32 33.34 -34 33 C-32.65 29.89 -31.25 28.12 -28.62 26 C-21.79 20.22 -15.62 13.71 -9.38 7.31 C-6.44 4.46 -3.37 2.31 0 0 Z " fill="#13683E" transform="translate(242,232)"/>
<path d="M0 0 C0 0.66 0 1.32 0 2 C0.99 2 1.98 2 3 2 C3 2.66 3 3.32 3 4 C1.68 4 0.36 4 -1 4 C-1.66 5.32 -2.32 6.64 -3 8 C-4.32 8 -5.64 8 -7 8 C-7 8.66 -7 9.32 -7 10 C-7.66 10 -8.32 10 -9 10 C-8.67 11.32 -8.34 12.64 -8 14 C-13.78 9.69 -13.78 9.69 -14.88 6.19 C-14.92 5.47 -14.96 4.74 -15 4 C-12.39 2.26 -10.99 1.58 -8.06 0.88 C-7.39 0.71 -6.72 0.54 -6.04 0.37 C-4 0 -4 0 0 0 Z " fill="#2FE95B" transform="translate(253,108)"/>
<path d="M0 0 C1.07 0.02 2.14 0.04 3.24 0.05 C4.05 0.08 4.85 0.1 5.69 0.12 C6.18 1.12 6.18 1.12 6.69 2.12 C5.37 2.15 5.37 2.15 4.02 2.17 C-2.93 2.25 -2.93 2.25 -9 5.12 C-9.76 6.12 -10.53 7.1 -11.31 8.12 C-13.02 9.76 -14.75 11.36 -16.5 12.94 C-17.79 14.12 -17.79 14.12 -19.11 15.33 C-21.31 17.12 -21.31 17.12 -23.31 17.12 C-23.64 18.12 -23.97 19.1 -24.31 20.12 C-25.3 19.8 -26.29 19.47 -27.31 19.12 C-23.91 12.86 -18.87 8.45 -13.31 4.12 C-12.65 4.12 -11.99 4.12 -11.31 4.12 C-11.31 3.47 -11.31 2.81 -11.31 2.12 C-7.38 0.27 -4.32 -0.1 0 0 Z " fill="#12A9AB" transform="translate(299.3125,161.875)"/>
<path d="M0 0 C0.5 1.48 0.5 1.48 1 3 C0.43 3.5 -0.14 4 -0.73 4.51 C-5.94 9.12 -10.99 13.86 -15.94 18.75 C-16.49 19.29 -17.05 19.83 -17.62 20.39 C-20.03 22.79 -21.93 24.89 -23.69 27.83 C-25 30 -25 30 -28 31 C-28.5 32.49 -28.5 32.49 -29 34 C-31.88 36.75 -31.88 36.75 -35 39 C-35.99 38.67 -36.98 38.34 -38 38 C-25.33 25.33 -12.67 12.67 0 0 Z " fill="#39A57B" transform="translate(170,110)"/>
<path d="M0 0 C-0.41 4.83 -2.46 6.83 -6 10 C-6.99 9.67 -7.98 9.34 -9 9 C-9 9.66 -9 10.32 -9 11 C-9.66 11 -10.32 11 -11 11 C-11.27 11.64 -11.54 12.28 -11.81 12.94 C-13 15 -13 15 -16 16 C-15.04 9.56 -11.88 6.3 -7.39 1.72 C-4.64 -0.26 -3.3 -0.38 0 0 Z " fill="#23D866" transform="translate(185,100)"/>
<path d="M0 0 C5.88 2.75 5.88 2.75 7 5 C6.22 5.12 5.43 5.25 4.62 5.38 C1.86 5.79 1.86 5.79 0 8 C-0.66 8.66 -1.32 9.32 -2 10 C-2.33 10.99 -2.66 11.98 -3 13 C-3.66 13 -4.32 13 -5 13 C-5.33 14.65 -5.66 16.3 -6 18 C-7.32 17.34 -8.64 16.68 -10 16 C-9.48 11.9 -8.38 9.86 -5.56 6.88 C-3.46 4.62 -1.72 2.58 0 0 Z " fill="#0F312F" transform="translate(193,224)"/>
<path d="M0 0 C0.33 0.66 0.66 1.32 1 2 C-1.97 5.68 -4.95 9.07 -8.62 12.06 C-11.12 14.1 -12.34 15.52 -14.19 18.31 C-16.26 21.38 -16.65 21.24 -20 22 C-20.45 22.8 -20.91 23.61 -21.38 24.44 C-23.47 27.74 -25.29 28.09 -29 29 C-22.55 21.23 -15.52 14.21 -7.86 7.64 C-5.11 5.22 -2.56 2.62 0 0 Z " fill="#35B9CD" transform="translate(272,179)"/>
<path d="M0 0 C0 0.99 0 1.98 0 3 C-0.99 3.5 -0.99 3.5 -2 4 C-1.67 5.32 -1.34 6.64 -1 8 C-1.48 8.4 -1.96 8.8 -2.46 9.21 C-3.09 9.74 -3.72 10.27 -4.38 10.81 C-5 11.33 -5.63 11.86 -6.27 12.39 C-8.22 14.08 -8.22 14.08 -10 17 C-12.62 17.19 -12.62 17.19 -15 17 C-13.67 13 -12 10.91 -9 8 C-8.32 6.73 -8.32 6.73 -7.62 5.44 C-5.56 2.34 -3.38 1.43 0 0 Z " fill="#34EFF0" transform="translate(238,164)"/>
<path d="M0 0 C0.99 0 1.98 0 3 0 C1.17 6 -1.07 11.45 -4 17 C-4.66 17 -5.32 17 -6 17 C-6.27 17.6 -6.54 18.2 -6.81 18.81 C-7.98 20.97 -9.19 22.36 -11 24 C-10.53 19 -9.17 16.8 -6 13 C-4.56 10.38 -3.26 7.71 -2 5 C-3.98 5.66 -5.96 6.32 -8 7 C-5.88 3.82 -4.27 2.84 -1 1 C-0.67 0.67 -0.34 0.34 0 0 Z " fill="#71ECB8" transform="translate(193,89)"/>
<path d="M0 0 C0.66 0.66 1.32 1.32 2 2 C1.41 2.63 0.81 3.26 0.2 3.91 C-5.19 9.73 -10.22 15.71 -15.08 21.99 C-18.56 26.47 -22.18 30.8 -26 35 C-26 25.77 -12.42 14.43 -6.5 7.72 C-4.29 5.19 -2.14 2.6 0 0 Z " fill="#69D8A4" transform="translate(210,201)"/>
<path d="M0 0 C4.06 1.35 6.44 3.08 9.43 6.13 C10.22 6.94 11.02 7.74 11.84 8.57 C12.65 9.42 13.47 10.26 14.31 11.12 C15.15 11.97 15.98 12.82 16.85 13.7 C18.9 15.79 20.96 17.89 23 20 C22.34 20.99 21.68 21.98 21 23 C18.24 20.3 15.49 17.59 12.75 14.88 C11.97 14.11 11.2 13.35 10.39 12.57 C6.4 8.61 2.88 4.85 0 0 Z " fill="#127445" transform="translate(285,138)"/>
<path d="M0 0 C4.6 3.76 8.59 7.63 12.42 12.17 C13.88 13.86 15.4 15.44 17 17 C16.67 17.66 16.34 18.32 16 19 C12.11 15.83 8.49 12.6 5 9 C2.94 13.38 2.39 17.56 1.88 22.31 C1.79 23.05 1.7 23.79 1.61 24.56 C1.4 26.37 1.2 28.19 1 30 C-1.58 26.13 -0.85 23.55 -0.19 19.19 C-0.04 18.14 -0.04 18.14 0.1 17.07 C0.54 13.92 1.04 10.8 1.63 7.67 C2.07 4.51 1.41 2.82 0 0 Z " fill="#265F34" transform="translate(165,193)"/>
<path d="M0 0 C-3.64 8.13 -10.77 14.09 -18 19 C-16.07 11.62 -8.43 0 0 0 Z " fill="#228F6E" transform="translate(261,143)"/>
<path d="M0 0 C0.66 0.33 1.32 0.66 2 1 C-6.25 9.25 -14.5 17.5 -23 26 C-23.33 25.01 -23.66 24.02 -24 23 C-22.69 20.81 -22.69 20.81 -21 19 C-20.34 19 -19.68 19 -19 19 C-18.67 18.01 -18.34 17.02 -18 16 C-16.19 14.25 -16.19 14.25 -14 12.44 C-11.05 10.08 -11.05 10.08 -9 7 C-8.24 6.55 -7.47 6.09 -6.69 5.62 C-4.02 4.01 -2.12 2.27 0 0 Z " fill="#98E8EE" transform="translate(278,197)"/>
<path d="M0 0 C0.33 0.99 0.66 1.98 1 3 C-0.75 5.38 -0.75 5.38 -3 8 C-3.41 8.76 -3.83 9.53 -4.25 10.31 C-6.91 14.39 -10.3 17.84 -14 21 C-14.66 21 -15.32 21 -16 21 C-15.52 16.72 -12.97 14.9 -10 12 C-9.55 11.22 -9.09 10.43 -8.62 9.62 C-6.3 5.87 -3.19 3.03 0 0 Z " fill="#46C878" transform="translate(131,149)"/>
<path d="M0 0 C1.94 0.38 1.94 0.38 4 1 C4.33 1.66 4.66 2.32 5 3 C3.68 3.33 2.36 3.66 1 4 C1 4.99 1 5.98 1 7 C-0.62 8.71 -2.3 10.37 -4 12 C-5.36 13.65 -6.7 15.31 -8 17 C-9.32 16.67 -10.64 16.34 -12 16 C-12 15.34 -12 14.68 -12 14 C-11.34 14 -10.68 14 -10 14 C-10 13.34 -10 12.68 -10 12 C-8.33 10.33 -6.67 8.67 -5 7 C-3.25 4.72 -1.63 2.37 0 0 Z " fill="#136F36" transform="translate(199,230)"/>
<path d="M0 0 C0.8 0.03 1.6 0.05 2.42 0.08 C3.33 0.13 3.33 0.13 4.25 0.19 C2.53 3.95 0.26 6.34 -2.75 9.19 C-2.75 7.54 -2.75 5.89 -2.75 4.19 C-8.42 5.54 -10.93 8 -14.75 12.19 C-15.41 11.86 -16.07 11.53 -16.75 11.19 C-15.5 9.91 -14.25 8.64 -13 7.38 C-12.3 6.67 -11.61 5.96 -10.89 5.23 C-5.17 -0.23 -5.17 -0.23 0 0 Z " fill="#45E4BA" transform="translate(215.75,188.8125)"/>
<path d="M0 0 C0.99 0.33 1.98 0.66 3 1 C-0.5 5.17 -3.98 9.31 -8 13 C-8.66 13 -9.32 13 -10 13 C-10.25 13.6 -10.5 14.2 -10.75 14.81 C-12.16 17.29 -13.65 18.43 -16 20 C-15.71 16.55 -15.36 15.31 -12.69 13 C-11.8 12.34 -10.91 11.68 -10 11 C-8.65 9.35 -7.31 7.68 -6 6 C-4.35 4.31 -2.69 2.64 -1 1 C-0.67 0.67 -0.34 0.34 0 0 Z " fill="#C0DCDB" transform="translate(177,99)"/>
<path d="M0 0 C0.66 0 1.32 0 2 0 C2 2.31 2 4.62 2 7 C0.68 7.33 -0.64 7.66 -2 8 C-1.34 9.65 -0.68 11.3 0 13 C-4.14 9.7 -7.59 6.83 -10 2 C-6.7 2 -3.4 2 0 2 C0 1.34 0 0.68 0 0 Z " fill="#7CBCB9" transform="translate(230,94)"/>
<path d="M0 0 C0.66 0.33 1.32 0.66 2 1 C1.24 1.88 0.48 2.77 -0.31 3.68 C-1.35 4.89 -2.39 6.1 -3.44 7.31 C-3.98 7.94 -4.53 8.58 -5.09 9.23 C-9.15 13.97 -13.1 18.79 -16.96 23.7 C-19.12 26.13 -21.41 28.05 -24 30 C-22.34 26.05 -19.65 23.07 -16.88 19.88 C-12.69 15.01 -8.62 10.08 -4.66 5.02 C-3.19 3.23 -1.67 1.6 0 0 Z " fill="#B3E9E6" transform="translate(235,172)"/>
<path d="M0 0 C0 3.48 -0.57 4.11 -2.62 6.79 C-3.17 7.51 -3.71 8.22 -4.27 8.95 C-4.84 9.69 -5.41 10.43 -6 11.19 C-6.57 11.94 -7.14 12.69 -7.73 13.46 C-9.15 15.31 -10.57 17.16 -12 19 C-12.66 18.67 -13.32 18.34 -14 18 C-13.85 13.06 -11.24 10.91 -7.85 7.71 C-7.24 7.15 -6.63 6.58 -6 6 C-5.04 5.05 -4.08 4.09 -3.12 3.12 C-2.08 2.08 -1.04 1.04 0 0 Z " fill="#152817" transform="translate(187,213)"/>
<path d="M0 0 C3.72 2.96 5.18 4.63 5.83 9.46 C4.68 8.53 3.54 7.59 2.39 6.64 C1.76 6.12 1.12 5.6 0.46 5.06 C-1.17 3.46 -1.17 3.46 -2.17 0.46 C-6.62 0.22 -9.91 0.11 -13.98 2.02 C-17.17 3.46 -17.17 3.46 -20.17 2.46 C-17.52 1.07 -14.85 -0.24 -12.17 -1.54 C-11.18 -2.06 -10.19 -2.57 -9.17 -3.11 C-5.09 -3.7 -3.31 -2.26 0 0 Z " fill="#63B96C" transform="translate(160.16796875,187.54296875)"/>
<path d="M0 0 C0 0.99 0 1.98 0 3 C-1.27 4.18 -1.27 4.18 -2.56 5.38 C-5.26 7.68 -5.26 7.68 -5 10.3 C-3.64 13.97 -1.23 16.2 1.56 18.81 C2.08 19.31 2.6 19.82 3.14 20.33 C4.42 21.57 5.71 22.78 7 24 C3.54 24 3.25 23.65 0.86 21.38 C0.29 20.83 -0.29 20.29 -0.88 19.73 C-1.48 19.16 -2.07 18.59 -2.69 18 C-3.29 17.43 -3.9 16.86 -4.53 16.27 C-6.02 14.85 -7.51 13.43 -9 12 C-7.71 8.23 -6.27 5.92 -3.38 3.19 C-2.74 2.58 -2.11 1.98 -1.46 1.36 C-0.98 0.91 -0.5 0.46 0 0 Z " fill="#9ED4C9" transform="translate(121,159)"/>
<path d="M0 0 C0 3 0 3 -2.2 5.54 C-3.21 6.55 -4.23 7.55 -5.25 8.54 C-5.78 9.07 -6.32 9.6 -6.86 10.14 C-8.57 11.83 -10.28 13.51 -12 15.19 C-13.16 16.33 -14.31 17.47 -15.47 18.62 C-18.3 21.42 -21.15 24.21 -24 27 C-24.66 26.67 -25.32 26.34 -26 26 C-23.38 22.64 -20.76 19.7 -17.5 16.94 C-11.31 11.67 -5.7 5.78 0 0 Z " fill="#092325" transform="translate(310,164)"/>
<path d="M0 0 C0.66 0.99 1.32 1.98 2 3 C-2.95 7.95 -7.9 12.9 -13 18 C-13.33 16.68 -13.66 15.36 -14 14 C-13.01 14 -12.02 14 -11 14 C-11 13.01 -11 12.02 -11 11 C-10.34 11 -9.68 11 -9 11 C-9 10.34 -9 9.68 -9 9 C-8.34 9 -7.68 9 -7 9 C-6.73 8.4 -6.46 7.8 -6.19 7.19 C-5 5 -3.9 3.59 -2 2 C-1.34 2 -0.68 2 0 2 C0 1.34 0 0.68 0 0 Z " fill="#94F0A4" transform="translate(201,97)"/>
<path d="M0 0 C0.66 0 1.32 0 2 0 C2 0.66 2 1.32 2 2 C2.99 2.33 3.98 2.66 5 3 C6.37 4.64 7.69 6.31 9 8 C10.64 9.69 12.31 11.35 14 13 C15.61 14.6 17.21 16.21 18.81 17.81 C19.6 18.6 20.39 19.39 21.21 20.21 C21.8 20.8 22.39 21.39 23 22 C20 22 20 22 18.36 20.7 C17.78 20.11 17.2 19.51 16.6 18.89 C15.96 18.24 15.31 17.59 14.65 16.91 C13.98 16.22 13.31 15.53 12.62 14.81 C11.97 14.14 11.31 13.47 10.62 12.77 C9.34 11.46 8.05 10.14 6.77 8.81 C5.22 7.22 3.63 5.68 2.02 4.14 C0 2 0 2 0 0 Z " fill="#B5D5CF" transform="translate(136,164)"/>
<path d="M0 0 C4.92 4.12 9.53 8.4 14 13 C12 14 12 14 9.62 13.38 C6.51 11.74 5.08 9.8 3 7 C2.34 6.67 1.68 6.34 1 6 C1 5.01 1 4.02 1 3 C0.34 2.67 -0.32 2.34 -1 2 C-0.67 1.34 -0.34 0.68 0 0 Z " fill="#57CF8D" transform="translate(237,89)"/>
<path d="M0 0 C4.39 1.63 6.97 4.97 10 8.38 C11.04 9.53 12.08 10.68 13.12 11.84 C13.61 12.38 14.1 12.92 14.61 13.48 C16.35 15.38 18.16 17.2 20 19 C19.67 19.66 19.34 20.32 19 21 C15.83 17.88 12.66 14.76 9.5 11.62 C8.59 10.74 7.69 9.85 6.75 8.93 C5.47 7.65 5.47 7.65 4.16 6.35 C3.36 5.57 2.56 4.78 1.74 3.97 C0 2 0 2 0 0 Z " fill="#569E81" transform="translate(189,246)"/>
<path d="M0 0 C0.99 0.33 1.98 0.66 3 1 C0.94 3.11 -1.12 5.21 -3.19 7.31 C-4.05 8.2 -4.05 8.2 -4.94 9.12 C-8.08 12.29 -10.99 14.91 -15 17 C-13.68 14.07 -12.25 12.01 -9.96 9.77 C-9.38 9.19 -8.8 8.62 -8.2 8.03 C-7.6 7.44 -7 6.85 -6.38 6.25 C-5.76 5.65 -5.15 5.05 -4.52 4.43 C-3.02 2.95 -1.51 1.47 0 0 Z " fill="#D4F0F3" transform="translate(248,199)"/>
<path d="M0 0 C0.33 0 0.66 0 1 0 C1 1.65 1 3.3 1 5 C1.66 5 2.32 5 3 5 C3 6.32 3 7.64 3 9 C4.32 9 5.64 9 7 9 C7.66 10.32 8.32 11.64 9 13 C8.01 13 7.02 13 6 13 C6 12.34 6 11.68 6 11 C4.87 10.69 3.73 10.38 2.56 10.06 C-1 9 -1 9 -2 8 C-1.28 1.28 -1.28 1.28 0 0 Z " fill="#1CD479" transform="translate(213,233)"/>
<path d="M0 0 C0.33 0.99 0.66 1.98 1 3 C-7.08 10.67 -7.08 10.67 -13 12 C-2.94 0 -2.94 0 0 0 Z " fill="#4ACAD4" transform="translate(253,221)"/>
<path d="M0 0 C0 3 0 3 -2.01 5.19 C-2.89 5.97 -3.78 6.76 -4.69 7.56 C-5.99 8.74 -5.99 8.74 -7.32 9.94 C-9.86 11.89 -11.99 13 -15 14 C-12.95 8.47 -8.1 5.46 -3 3 C-1.29 1.46 -1.29 1.46 0 0 Z " fill="#53A9B2" transform="translate(291,185)"/>
<path d="M0 0 C1.57 3.15 0.6 6.17 0.16 9.59 C-0.16 12.14 -0.16 12.14 1 15 C0.34 15 -0.32 15 -1 15 C-3.74 12.05 -4 11.23 -4 7 C-4.66 7 -5.32 7 -6 7 C-6 6.34 -6 5.68 -6 5 C-5.38 4.73 -4.76 4.46 -4.12 4.19 C-1.7 3.04 -1.7 3.04 0 0 Z " fill="#6FE62E" transform="translate(135,176)"/>
<path d="M0 0 C-1.58 3.83 -4.02 6.29 -6.94 9.19 C-8.25 10.51 -8.25 10.51 -9.59 11.86 C-12 14 -12 14 -15 15 C-13.39 10.97 -10.54 8.24 -7.5 5.25 C-7 4.74 -6.5 4.24 -5.99 3.71 C-2.25 0 -2.25 0 0 0 Z " fill="#C9DAD9" transform="translate(164,85)"/>
<path d="M0 0 C6.78 5.55 12.86 11.76 19 18 C18.34 18.66 17.68 19.32 17 20 C16.19 19.12 15.38 18.24 14.55 17.33 C13.47 16.16 12.39 14.99 11.31 13.81 C10.78 13.23 10.25 12.66 9.71 12.06 C7.23 9.37 4.74 6.73 2.11 4.2 C0 2 0 2 0 0 Z " fill="#234336" transform="translate(139,221)"/>
<path d="M0 0 C1.14 3.43 0.91 5.61 0.56 9.19 C0.46 10.27 0.36 11.36 0.25 12.48 C0.17 13.31 0.09 14.14 0 15 C-3 15 -3 15 -4.61 13.47 C-5.39 12.49 -5.39 12.49 -6.19 11.5 C-6.72 10.85 -7.25 10.2 -7.79 9.53 C-8.39 8.77 -8.39 8.77 -9 8 C-8.34 7.67 -7.68 7.34 -7 7 C-7 7.66 -7 8.32 -7 9 C-5.68 8.67 -4.36 8.34 -3 8 C-3.33 9.32 -3.66 10.64 -4 12 C-3.34 12 -2.68 12 -2 12 C-1.94 11.22 -1.88 10.44 -1.82 9.63 C-1.73 8.62 -1.65 7.61 -1.56 6.56 C-1.48 5.55 -1.4 4.54 -1.32 3.5 C-1 1 -1 1 0 0 Z " fill="#36B82E" transform="translate(165,205)"/>
<path d="M0 0 C0.66 0.66 1.32 1.32 2 2 C-0.53 7.21 -4.62 10.39 -9 14 C-9.66 13.01 -10.32 12.02 -11 11 C-10.01 10.67 -9.02 10.34 -8 10 C-6.54 8.37 -5.15 6.67 -3.81 4.94 C-3.1 4.02 -2.38 3.1 -1.64 2.15 C-1.1 1.44 -0.56 0.73 0 0 Z " fill="#275436" transform="translate(194,202)"/>
<path d="M0 0 C-1.2 3.08 -2.48 6.06 -4 9 C-4.66 9 -5.32 9 -6 9 C-6 8.01 -6 7.02 -6 6 C-7.32 5.67 -8.64 5.34 -10 5 C-6.99 1.69 -4.54 0 0 0 Z " fill="#45E19B" transform="translate(191,94)"/>
<path d="M0 0 C0.66 0 1.32 0 2 0 C0.49 3.84 -1.77 5.52 -5 8 C-6.27 9.33 -6.27 9.33 -7.56 10.69 C-9.88 12.88 -10.9 13.66 -14 14 C-10.13 9.04 -5.79 5.06 -1 1 C-0.67 0.67 -0.34 0.34 0 0 Z " fill="#AADDDE" transform="translate(285,164)"/>
<path d="M0 0 C0.99 0.33 1.98 0.66 3 1 C3.25 3.75 3.25 3.75 3 7 C1 9.38 1 9.38 -1 11 C-1.12 10.36 -1.25 9.72 -1.38 9.06 C-1.58 8.38 -1.79 7.7 -2 7 C-2.66 6.67 -3.32 6.34 -4 6 C-3.34 5.67 -2.68 5.34 -2 5 C-2.66 4.67 -3.32 4.34 -4 4 C-2.68 2.68 -1.36 1.36 0 0 Z " fill="#38D8D3" transform="translate(238,161)"/>
<path d="M0 0 C3.54 1.5 5.73 3.55 8.38 6.31 C11.77 9.79 15.2 12.98 19 16 C18.34 16.66 17.68 17.32 17 18 C14.16 15.19 11.33 12.38 8.5 9.56 C7.28 8.36 7.28 8.36 6.04 7.13 C5.28 6.37 4.51 5.6 3.72 4.82 C3.01 4.11 2.29 3.4 1.56 2.67 C0 1 0 1 0 0 Z " fill="#71A0A1" transform="translate(286,103)"/>
<path d="M0 0 C0.66 0 1.32 0 2 0 C2.12 6.75 2.12 6.75 1 9 C-0.32 8.34 -1.64 7.68 -3 7 C-2.25 2.25 -2.25 2.25 0 0 Z " fill="#060B0A" transform="translate(186,233)"/>
<path d="M0 0 C0 3 0 3 -2.62 5.7 C-3.74 6.7 -4.87 7.7 -6 8.69 C-6.57 9.2 -7.14 9.71 -7.73 10.24 C-9.15 11.5 -10.57 12.75 -12 14 C-12.33 12.68 -12.66 11.36 -13 10 C-12.34 9.65 -11.68 9.3 -11 8.94 C-6.98 6.34 -3.54 3.21 0 0 Z " fill="#47B0BB" transform="translate(227,222)"/>
<path d="M0 0 C0.66 0.66 1.32 1.32 2 2 C0.57 3.8 -0.87 5.59 -2.31 7.38 C-3.51 8.87 -3.51 8.87 -4.74 10.4 C-7 13 -7 13 -10 15 C-8.46 11.68 -6.55 8.8 -4.44 5.81 C-3.82 4.93 -3.2 4.05 -2.56 3.14 C-1 1 -1 1 0 0 Z " fill="#60AC7E" transform="translate(193,221)"/>
<path d="M0 0 C0.99 0.33 1.98 0.66 3 1 C3.87 2.83 3.87 2.83 4 5 C2.79 6.92 2.79 6.92 1.06 8.75 C0.5 9.36 -0.07 9.98 -0.65 10.61 C-1.32 11.3 -1.32 11.3 -2 12 C-3 9 -3 9 -2 6 C-1.34 6 -0.68 6 0 6 C0 4.02 0 2.04 0 0 Z " fill="#42B844" transform="translate(180,211)"/>
<path d="M0 0 C0 0.66 0 1.32 0 2 C-0.66 2 -1.32 2 -2 2 C-2 2.99 -2 3.98 -2 5 C-3.68 6.42 -3.68 6.42 -5.88 7.75 C-6.59 8.2 -7.31 8.65 -8.05 9.11 C-8.7 9.4 -9.34 9.7 -10 10 C-10.66 9.67 -11.32 9.34 -12 9 C-10.57 7.49 -9.13 5.99 -7.69 4.5 C-6.89 3.66 -6.09 2.83 -5.26 1.97 C-3 0 -3 0 0 0 Z " fill="#2CCA89" transform="translate(183,100)"/>
<path d="M0 0 C1.13 0.96 2.25 1.92 3.38 2.88 C4 3.41 4.63 3.94 5.27 4.49 C6.56 5.61 7.79 6.79 9 8 C8.67 8.99 8.34 9.98 8 11 C7.4 10.36 6.8 9.72 6.19 9.06 C4.09 6.8 4.09 6.8 1 6 C0.67 4.02 0.34 2.04 0 0 Z " fill="#25B044" transform="translate(261,113)"/>
<path d="M0 0 C7.48 6.15 7.48 6.15 10 10 C8.35 9.67 6.7 9.34 5 9 C5 8.34 5 7.68 5 7 C4.01 7 3.02 7 2 7 C1.34 4.69 0.68 2.38 0 0 Z " fill="#41C06C" transform="translate(251,103)"/>
<path d="M0 0 C0.33 0.99 0.66 1.98 1 3 C-0.32 3.33 -1.64 3.66 -3 4 C-2.34 5.65 -1.68 7.3 -1 9 C-3.5 7.25 -3.5 7.25 -6 5 C-6 3.68 -6 2.36 -6 1 C-3 0 -3 0 0 0 Z " fill="#63D6A5" transform="translate(231,98)"/>
<path d="M0 0 C3.22 1.41 5.32 3.1 7.75 5.62 C8.67 6.57 8.67 6.57 9.61 7.54 C10.3 8.26 10.3 8.26 11 9 C10.34 9.66 9.68 10.32 9 11 C8.52 10.51 8.04 10.01 7.54 9.5 C6.91 8.86 6.28 8.22 5.62 7.56 C5 6.92 4.37 6.29 3.73 5.63 C2.08 3.92 2.08 3.92 0 3 C0 2.01 0 1.02 0 0 Z " fill="#DAEDED" transform="translate(213,34)"/>
<path d="M0 0 C0.99 0.33 1.98 0.66 3 1 C2.07 2.13 1.13 3.25 0.19 4.38 C-0.33 5 -0.86 5.63 -1.39 6.27 C-3 8 -3 8 -6 10 C-5.75 7.62 -5.75 7.62 -5 5 C-3 3.88 -3 3.88 -1 3 C-0.67 2.01 -0.34 1.02 0 0 Z " fill="#86DADC" transform="translate(260,213)"/>
<path d="M0 0 C0 3.11 -0.54 4.35 -2 7 C0.31 7 2.62 7 5 7 C4.01 8.32 3.02 9.64 2 11 C-0.62 9.95 -1.79 9.35 -3.25 6.88 C-3.5 6.26 -3.75 5.64 -4 5 C-2.68 3.35 -1.36 1.7 0 0 Z " fill="#48AA4F" transform="translate(179,226)"/>
<path d="M0 0 C0.33 0.99 0.66 1.98 1 3 C-1.65 7.35 -4.11 8.78 -9 10 C-8.06 8.89 -7.13 7.79 -6.19 6.69 C-5.67 6.07 -5.14 5.46 -4.61 4.82 C-3.13 3.15 -1.6 1.56 0 0 Z " fill="#4FBC97" transform="translate(131,149)"/>
<path d="M0 0 C0.66 0.33 1.32 0.66 2 1 C0.41 2.68 -1.2 4.34 -2.81 6 C-3.71 6.93 -4.6 7.86 -5.52 8.81 C-8 11 -8 11 -11 11 C-11 10.34 -11 9.68 -11 9 C-9.01 7.66 -7.01 6.32 -5 5 C-3.3 3.37 -1.62 1.71 0 0 Z " fill="#26E984" transform="translate(208,193)"/>
<path d="M0 0 C1.32 0 2.64 0 4 0 C3.74 2.34 3.41 4.68 3 7 C2.01 7.5 2.01 7.5 1 8 C1 6.35 1 4.7 1 3 C0.01 2.67 -0.98 2.34 -2 2 C-1.34 1.34 -0.68 0.68 0 0 Z " fill="#36E98F" transform="translate(212,190)"/>
<path d="M0 0 C1.13 0.93 2.25 1.87 3.38 2.81 C4 3.33 4.63 3.86 5.27 4.39 C7 6 7 6 9 9 C6.69 9.33 4.38 9.66 2 10 C2 9.34 2 8.68 2 8 C2.99 8 3.98 8 5 8 C4.18 7.05 3.35 6.1 2.5 5.12 C0 2.25 0 2.25 0 0 Z " fill="#61C862" transform="translate(145,175)"/>
<path d="M0 0 C0.99 0 1.98 0 3 0 C1.48 3.48 -0.58 5.96 -3.12 8.75 C-3.85 9.55 -4.57 10.35 -5.32 11.17 C-5.87 11.78 -6.43 12.38 -7 13 C-7 9.43 -6.41 9.02 -4.06 6.5 C-1.93 4.2 -1.02 3.05 0 0 Z " fill="#54CAA1" transform="translate(258,143)"/>
<path d="M0 0 C0.66 0.33 1.32 0.66 2 1 C-4.14 7.71 -4.14 7.71 -9 8 C-6.15 5.07 -3.35 2.36 0 0 Z " fill="#2D7E84" transform="translate(242,232)"/>
<path d="M0 0 C0.66 0 1.32 0 2 0 C1.58 1.65 1.14 3.29 0.69 4.94 C0.44 5.85 0.2 6.77 -0.05 7.71 C-0.36 8.47 -0.68 9.22 -1 10 C-1.99 10.33 -2.98 10.66 -4 11 C-3.26 3.26 -3.26 3.26 0 0 Z " fill="#307452" transform="translate(235,89)"/>
<path d="M0 0 C3.6 0.56 5 1.75 7.25 4.56 C8.03 5.52 8.03 5.52 8.83 6.5 C9.21 7 9.6 7.49 10 8 C7 8 7 8 5.18 6.5 C4.56 5.86 3.95 5.22 3.31 4.56 C2.69 3.92 2.07 3.29 1.43 2.63 C0 1 0 1 0 0 Z " fill="#C3E9EA" transform="translate(230,51)"/>
<path d="M0 0 C0.66 0.33 1.32 0.66 2 1 C0.72 2.71 -0.62 4.37 -2 6 C-2.66 6 -3.32 6 -4 6 C-4.33 6.99 -4.66 7.98 -5 9 C-5.66 8.67 -6.32 8.34 -7 8 C-3.38 2.25 -3.38 2.25 0 0 Z " fill="#2CC8D9" transform="translate(233,217)"/>
<path d="M0 0 C0.66 0.33 1.32 0.66 2 1 C-1.3 3.97 -4.6 6.94 -8 10 C-8.99 9.67 -9.98 9.34 -11 9 C-7.37 6.03 -3.74 3.06 0 0 Z " fill="#6AC7A9" transform="translate(253,146)"/>
<path d="M0 0 C0.99 0.5 0.99 0.5 2 1 C2.34 3.33 2.67 5.67 3 8 C3.66 8.66 4.32 9.32 5 10 C3.68 10.99 2.36 11.98 1 13 C0.67 8.71 0.34 4.42 0 0 Z " fill="#25CA3E" transform="translate(196,203)"/>
<path d="M0 0 C0.66 0.66 1.32 1.32 2 2 C-1.45 6.8 -1.45 6.8 -4.25 7.81 C-5.12 7.91 -5.12 7.91 -6 8 C-4.56 4.63 -2.67 2.49 0 0 Z " fill="#94D4CE" transform="translate(201,195)"/>
<path d="M0 0 C0.33 0 0.66 0 1 0 C1 1.65 1 3.3 1 5 C1.66 5 2.32 5 3 5 C3 5.66 3 6.32 3 7 C1.35 7 -0.3 7 -2 7 C-1.12 1.12 -1.12 1.12 0 0 Z " fill="#20A37E" transform="translate(213,233)"/>
<path d="M0 0 C0.66 0.33 1.32 0.66 2 1 C1.05 2.17 0.09 3.34 -0.88 4.5 C-1.41 5.15 -1.94 5.8 -2.49 6.47 C-2.99 6.97 -3.49 7.48 -4 8 C-4.66 8 -5.32 8 -6 8 C-4.56 4.63 -2.67 2.49 0 0 Z " fill="#D4F5F3" transform="translate(208,188)"/>
<path d="M0 0 C4.75 1.88 4.75 1.88 7 3 C7.62 5.56 7.62 5.56 8 8 C6.85 7.05 5.71 6.09 4.56 5.12 C3.92 4.59 3.29 4.06 2.63 3.51 C1 2 1 2 0 0 Z " fill="#2C9C46" transform="translate(259,138)"/>
<path d="M0 0 C1.13 0.93 2.25 1.87 3.38 2.81 C4 3.33 4.63 3.86 5.27 4.39 C7 6 7 6 9 9 C5.42 7.35 2.25 5.22 -1 3 C-0.67 2.01 -0.34 1.02 0 0 Z " fill="#6EB997" transform="translate(237,89)"/>
<path d="M0 0 C0.66 0.66 1.32 1.32 2 2 C-0.64 4.64 -3.28 7.28 -6 10 C-6 6.41 -5.34 5.89 -3 3.31 C-2.44 2.69 -1.89 2.07 -1.31 1.43 C-0.88 0.96 -0.45 0.48 0 0 Z " fill="#536469" transform="translate(194,202)"/>
<path d="M0 0 C1.65 0 3.3 0 5 0 C5.66 2.31 6.32 4.62 7 7 C5.83 6.02 4.66 5.04 3.5 4.06 C2.85 3.52 2.2 2.97 1.53 2.41 C1.03 1.94 0.52 1.48 0 1 C0 0.67 0 0.34 0 0 Z " fill="#99E690" transform="translate(115,170)"/>
<path d="M0 0 C0.33 0.66 0.66 1.32 1 2 C-0.32 3.32 -1.64 4.64 -3 6 C-3.12 5.36 -3.25 4.72 -3.38 4.06 C-3.68 3.04 -3.68 3.04 -4 2 C-4.66 1.67 -5.32 1.34 -6 1 C-4.79 1.03 -4.79 1.03 -3.56 1.06 C-1.07 1.3 -1.07 1.3 0 0 Z " fill="#68D6D1" transform="translate(240,166)"/>
<path d="M0 0 C1.94 0.38 1.94 0.38 4 1 C4.33 1.66 4.66 2.32 5 3 C2.03 3.66 -0.94 4.32 -4 5 C-2.68 3.35 -1.36 1.7 0 0 Z " fill="#D3D9DA" transform="translate(212,65)"/>
<path d="M0 0 C0.66 0.33 1.32 0.66 2 1 C-0.37 3.62 -2.86 5.39 -6 7 C-6.66 6.67 -7.32 6.34 -8 6 C-5.36 4.02 -2.72 2.04 0 0 Z " fill="#17685A" transform="translate(235,239)"/>
</svg>
