<svg width="1000" height="1000" viewBox="0 0 1000 1000" fill="none" xmlns="http://www.w3.org/2000/svg">
<path d="M141.472 554V466.448H116.768V452.496H182.176V466.448H157.6V554H141.472ZM224.082 554.896C216.317 554.896 210.685 553.403 207.186 550.416C203.773 547.429 202.066 542.395 202.066 535.312V493.2C202.066 486.117 203.559 481.253 206.546 478.608C209.533 475.877 214.653 474.512 221.906 474.512H237.65C244.989 474.512 250.194 475.877 253.266 478.608C256.423 481.253 258.002 486.117 258.002 493.2V523.792H217.682V540.176C217.682 541.285 218.237 541.84 219.346 541.84H255.954V554.896H224.082ZM219.346 487.056C218.237 487.056 217.682 487.653 217.682 488.848V512.528H242.514V488.848C242.514 487.653 241.959 487.056 240.85 487.056H219.346ZM321.102 474.512V487.056H301.774C300.579 487.056 299.982 487.653 299.982 488.848L300.11 554H284.75L284.494 475.664H298.318L299.47 483.6C301.177 477.541 305.913 474.512 313.678 474.512H321.102ZM376.595 474.512C381.63 474.512 385.598 475.28 388.499 476.816C391.4 478.352 393.363 480.955 394.387 484.624C395.923 477.883 400.787 474.512 408.979 474.512H416.147C422.632 474.512 427.326 475.792 430.227 478.352C433.214 480.912 434.707 485.435 434.707 491.92V554H419.219V488.848C419.219 487.653 418.664 487.056 417.555 487.056H396.947C395.838 487.056 395.283 487.653 395.283 488.848L395.155 489.36C395.24 490.213 395.283 491.067 395.283 491.92V554H379.667V488.848C379.667 487.653 379.112 487.056 378.003 487.056H357.139C356.03 487.056 355.475 487.653 355.475 488.848L355.731 554H340.115L339.987 475.664H353.811L354.963 483.6C356.67 477.541 361.406 474.512 369.171 474.512H376.595ZM462.942 461.712V447.376H478.558V461.712H462.942ZM462.942 554V475.664H478.558V554H462.942ZM547.201 474.512C553.601 474.512 558.294 475.792 561.281 478.352C564.268 480.912 565.761 485.435 565.761 491.92V554H550.273V488.848C550.273 487.653 549.718 487.056 548.609 487.056H526.209C525.014 487.056 524.417 487.653 524.417 488.848L524.545 554H509.185L508.929 475.664H522.753L523.905 483.6C525.612 477.541 530.348 474.512 538.113 474.512H547.201ZM607.788 555.152C601.388 555.152 596.695 553.915 593.708 551.44C590.807 548.88 589.356 544.357 589.356 537.872V526.352C589.356 519.525 590.892 514.789 593.964 512.144C597.121 509.413 602.327 508.048 609.58 508.048H629.676V490.256C629.676 489.147 629.121 488.592 628.012 488.592L594.092 488.72V475.536H624.556C631.895 475.451 637.185 476.859 640.428 479.76C643.671 482.576 645.292 487.525 645.292 494.608V554H631.34L630.06 545.168C629.377 548.496 627.884 551.013 625.58 552.72C623.361 554.341 620.161 555.152 615.98 555.152H607.788ZM629.676 542.608V519.312H606.38C605.271 519.312 604.716 519.867 604.716 520.976V540.816C604.716 542.011 605.271 542.608 606.38 542.608H629.676ZM673.996 554V446.224H689.612V554H673.996ZM756.987 554.64L721.531 554V540.048H762.747C764.198 540.048 764.923 539.365 764.923 538V516.496H740.731C732.795 516.496 726.95 514.875 723.195 511.632C719.44 508.304 717.563 502.885 717.563 495.376V473.616C717.563 459.195 725.584 451.984 741.627 451.984H757.371C765.307 451.984 771.28 453.648 775.291 456.976C779.302 460.304 781.307 465.637 781.307 472.976V532.624C781.307 539.707 779.216 545.211 775.035 549.136C770.854 552.976 764.838 554.811 756.987 554.64ZM736.123 502.8H764.923V468.624C764.923 467.173 764.155 466.448 762.619 466.448H736.123C734.758 466.448 734.075 467.173 734.075 468.624V500.752C734.075 502.117 734.758 502.8 736.123 502.8ZM873.562 516.368L892.634 554H875.354L854.746 511.376C854.234 510.352 853.551 509.84 852.698 509.84H843.866C842.927 509.84 842.245 510.352 841.818 511.376L821.21 554H804.954L823.642 516.24C825.434 512.571 826.927 509.669 828.122 507.536C829.402 505.317 831.109 503.696 833.242 502.672C831.023 501.648 829.231 500.069 827.866 497.936C826.501 495.803 825.05 492.901 823.514 489.232L806.746 452.496H823.898L842.586 494.096C842.842 494.693 843.098 495.12 843.354 495.376C843.61 495.632 844.037 495.76 844.634 495.76H853.466C854.405 495.76 855.087 495.205 855.514 494.096L874.586 452.496H890.842L873.434 489.36C871.642 493.115 870.106 496.059 868.826 498.192C867.546 500.325 865.839 501.904 863.706 502.928C865.839 503.952 867.546 505.573 868.826 507.792C870.191 509.925 871.77 512.784 873.562 516.368Z" fill="white"/>
<path d="M141.472 554V466.448H116.768V452.496H182.176V466.448H157.6V554H141.472ZM224.082 554.896C216.317 554.896 210.685 553.403 207.186 550.416C203.773 547.429 202.066 542.395 202.066 535.312V493.2C202.066 486.117 203.559 481.253 206.546 478.608C209.533 475.877 214.653 474.512 221.906 474.512H237.65C244.989 474.512 250.194 475.877 253.266 478.608C256.423 481.253 258.002 486.117 258.002 493.2V523.792H217.682V540.176C217.682 541.285 218.237 541.84 219.346 541.84H255.954V554.896H224.082ZM219.346 487.056C218.237 487.056 217.682 487.653 217.682 488.848V512.528H242.514V488.848C242.514 487.653 241.959 487.056 240.85 487.056H219.346ZM321.102 474.512V487.056H301.774C300.579 487.056 299.982 487.653 299.982 488.848L300.11 554H284.75L284.494 475.664H298.318L299.47 483.6C301.177 477.541 305.913 474.512 313.678 474.512H321.102ZM376.595 474.512C381.63 474.512 385.598 475.28 388.499 476.816C391.4 478.352 393.363 480.955 394.387 484.624C395.923 477.883 400.787 474.512 408.979 474.512H416.147C422.632 474.512 427.326 475.792 430.227 478.352C433.214 480.912 434.707 485.435 434.707 491.92V554H419.219V488.848C419.219 487.653 418.664 487.056 417.555 487.056H396.947C395.838 487.056 395.283 487.653 395.283 488.848L395.155 489.36C395.24 490.213 395.283 491.067 395.283 491.92V554H379.667V488.848C379.667 487.653 379.112 487.056 378.003 487.056H357.139C356.03 487.056 355.475 487.653 355.475 488.848L355.731 554H340.115L339.987 475.664H353.811L354.963 483.6C356.67 477.541 361.406 474.512 369.171 474.512H376.595ZM462.942 461.712V447.376H478.558V461.712H462.942ZM462.942 554V475.664H478.558V554H462.942ZM547.201 474.512C553.601 474.512 558.294 475.792 561.281 478.352C564.268 480.912 565.761 485.435 565.761 491.92V554H550.273V488.848C550.273 487.653 549.718 487.056 548.609 487.056H526.209C525.014 487.056 524.417 487.653 524.417 488.848L524.545 554H509.185L508.929 475.664H522.753L523.905 483.6C525.612 477.541 530.348 474.512 538.113 474.512H547.201ZM607.788 555.152C601.388 555.152 596.695 553.915 593.708 551.44C590.807 548.88 589.356 544.357 589.356 537.872V526.352C589.356 519.525 590.892 514.789 593.964 512.144C597.121 509.413 602.327 508.048 609.58 508.048H629.676V490.256C629.676 489.147 629.121 488.592 628.012 488.592L594.092 488.72V475.536H624.556C631.895 475.451 637.185 476.859 640.428 479.76C643.671 482.576 645.292 487.525 645.292 494.608V554H631.34L630.06 545.168C629.377 548.496 627.884 551.013 625.58 552.72C623.361 554.341 620.161 555.152 615.98 555.152H607.788ZM629.676 542.608V519.312H606.38C605.271 519.312 604.716 519.867 604.716 520.976V540.816C604.716 542.011 605.271 542.608 606.38 542.608H629.676ZM673.996 554V446.224H689.612V554H673.996Z" fill="#BDD2B5"/>
<path d="M756.987 554.64L721.531 554V540.048H762.747C764.198 540.048 764.923 539.365 764.923 538V516.496H740.731C732.795 516.496 726.95 514.875 723.195 511.632C719.44 508.304 717.563 502.885 717.563 495.376V473.616C717.563 459.195 725.584 451.984 741.627 451.984H757.371C765.307 451.984 771.28 453.648 775.291 456.976C779.302 460.304 781.307 465.637 781.307 472.976V532.624C781.307 539.707 779.216 545.211 775.035 549.136C770.854 552.976 764.838 554.811 756.987 554.64ZM736.123 502.8H764.923V468.624C764.923 467.173 764.155 466.448 762.619 466.448H736.123C734.758 466.448 734.075 467.173 734.075 468.624V500.752C734.075 502.117 734.758 502.8 736.123 502.8ZM873.562 516.368L892.634 554H875.354L854.746 511.376C854.234 510.352 853.551 509.84 852.698 509.84H843.866C842.927 509.84 842.245 510.352 841.818 511.376L821.21 554H804.954L823.642 516.24C825.434 512.571 826.927 509.669 828.122 507.536C829.402 505.317 831.109 503.696 833.242 502.672C831.023 501.648 829.231 500.069 827.866 497.936C826.501 495.803 825.05 492.901 823.514 489.232L806.746 452.496H823.898L842.586 494.096C842.842 494.693 843.098 495.12 843.354 495.376C843.61 495.632 844.037 495.76 844.634 495.76H853.466C854.405 495.76 855.087 495.205 855.514 494.096L874.586 452.496H890.842L873.434 489.36C871.642 493.115 870.106 496.059 868.826 498.192C867.546 500.325 865.839 501.904 863.706 502.928C865.839 503.952 867.546 505.573 868.826 507.792C870.191 509.925 871.77 512.784 873.562 516.368Z" fill="#90D975"/>
<g filter="url(#filter0_dd_1_2)">
<path d="M140 592H882M140 410H882" stroke="#52FF00" stroke-width="2" shape-rendering="crispEdges"/>
</g>
<defs>
<filter id="filter0_dd_1_2" x="93.7" y="362.7" width="844.6" height="286.6" filterUnits="userSpaceOnUse" color-interpolation-filters="sRGB">
<feFlood flood-opacity="0" result="BackgroundImageFix"/>
<feColorMatrix in="SourceAlpha" type="matrix" values="0 0 0 0 0 0 0 0 0 0 0 0 0 0 0 0 0 0 127 0" result="hardAlpha"/>
<feOffset/>
<feGaussianBlur stdDeviation="12.5"/>
<feComposite in2="hardAlpha" operator="out"/>
<feColorMatrix type="matrix" values="0 0 0 0 0.323527 0 0 0 0 1 0 0 0 0 0 0 0 0 1 0"/>
<feBlend mode="normal" in2="BackgroundImageFix" result="effect1_dropShadow_1_2"/>
<feColorMatrix in="SourceAlpha" type="matrix" values="0 0 0 0 0 0 0 0 0 0 0 0 0 0 0 0 0 0 127 0" result="hardAlpha"/>
<feOffset dx="5" dy="5"/>
<feGaussianBlur stdDeviation="25.65"/>
<feComposite in2="hardAlpha" operator="out"/>
<feColorMatrix type="matrix" values="0 0 0 0 0.323527 0 0 0 0 1 0 0 0 0 0 0 0 0 1 0"/>
<feBlend mode="normal" in2="effect1_dropShadow_1_2" result="effect2_dropShadow_1_2"/>
<feBlend mode="normal" in="BackgroundImageFix" in2="effect2_dropShadow_1_2" result="BackgroundImageFix"/>
<feBlend mode="normal" in="SourceGraphic" in2="BackgroundImageFix" result="shape"/>
</filter>
</defs>
</svg>
